<svg xmlns="http://www.w3.org/2000/svg" xmlns:xlink="http://www.w3.org/1999/xlink" width="1344" zoomAndPan="magnify" viewBox="0 0 1008 1295.99994" height="1728" preserveAspectRatio="xMidYMid meet" version="1.0"><defs><g/><clipPath id="42509cf4b8"><path d="M 352.851562 311.128906 L 496.195312 311.128906 L 496.195312 1019.410156 L 352.851562 1019.410156 Z M 352.851562 311.128906 " clip-rule="nonzero"/></clipPath><clipPath id="eae5fd3fff"><path d="M 508.945312 311.128906 L 652.289062 311.128906 L 652.289062 1019.410156 L 508.945312 1019.410156 Z M 508.945312 311.128906 " clip-rule="nonzero"/></clipPath><clipPath id="a89ee8bc85"><path d="M 196.988281 311.128906 L 340.332031 311.128906 L 340.332031 1019.410156 L 196.988281 1019.410156 Z M 196.988281 311.128906 " clip-rule="nonzero"/></clipPath><clipPath id="3f66a6f9f2"><path d="M 665.039062 311.128906 L 808.382812 311.128906 L 808.382812 1019.410156 L 665.039062 1019.410156 Z M 665.039062 311.128906 " clip-rule="nonzero"/></clipPath></defs><g clip-path="url(#42509cf4b8)"><path fill="#ea952f" d="M 352.851562 311.128906 L 496.195312 311.128906 L 496.195312 1019.453125 L 352.851562 1019.453125 Z M 352.851562 311.128906 " fill-opacity="1" fill-rule="nonzero"/></g><g clip-path="url(#eae5fd3fff)"><path fill="#6d9994" d="M 508.945312 311.128906 L 652.289062 311.128906 L 652.289062 1019.453125 L 508.945312 1019.453125 Z M 508.945312 311.128906 " fill-opacity="1" fill-rule="nonzero"/></g><g clip-path="url(#a89ee8bc85)"><path fill="#cc4d5f" d="M 196.988281 311.128906 L 340.332031 311.128906 L 340.332031 1019.453125 L 196.988281 1019.453125 Z M 196.988281 311.128906 " fill-opacity="1" fill-rule="nonzero"/></g><g clip-path="url(#3f66a6f9f2)"><path fill="#cc4d5f" d="M 665.039062 311.128906 L 808.382812 311.128906 L 808.382812 1019.453125 L 665.039062 1019.453125 Z M 665.039062 311.128906 " fill-opacity="1" fill-rule="nonzero"/></g><path fill="#1e1e1e" d="M 241.753906 760.472656 C 242.414062 791.5 250.730469 909.824219 296.949219 912.503906 C 301.542969 916.664062 307.441406 919.570312 313.652344 921.011719 C 318.316406 922.632812 323.710938 922.683594 329 921.394531 C 333.800781 920.492188 338.238281 918.523438 341.859375 915.410156 C 344.921875 913.042969 347.375 910.171875 348.992188 906.902344 C 351.167969 908.726562 353.585938 910.242188 356.265625 911.40625 C 370.011719 917.238281 385.308594 901.542969 389.050781 889.585938 C 396.113281 867.089844 384.890625 845.460938 378.207031 824.246094 C 372.378906 805.804688 370.742188 785.949219 366.324219 767.15625 C 362.007812 748.972656 345.773438 707.957031 322.980469 709.003906 C 313.617188 682.398438 312.992188 655.007812 315.042969 626.976562 C 315.253906 624.433594 314.035156 622.816406 312.363281 622 C 311.789062 621.53125 311.128906 621.148438 310.277344 620.867188 C 307.511719 619.980469 304.636719 619.476562 301.765625 619.234375 C 303.160156 608.914062 303.75 598.457031 307.71875 588.710938 C 308.519531 586.691406 308.136719 585.023438 307.160156 583.820312 C 317.304688 547.992188 334.082031 515.925781 362.636719 491.09375 C 392.929688 464.800781 434.378906 450.304688 473.09375 442.300781 C 580.265625 420.167969 677.882812 491.441406 709.847656 591.929688 C 710.320312 593.445312 711.207031 594.453125 712.25 595.113281 C 714.390625 602.964844 715.015625 611.125 716.148438 619.234375 C 713.226562 619.476562 710.386719 619.980469 707.605469 620.867188 C 706.785156 621.148438 706.074219 621.53125 705.535156 622 C 703.863281 622.816406 702.664062 624.433594 702.855469 626.976562 C 704.90625 655.320312 704.261719 683.023438 694.589844 709.890625 C 688.324219 710.132812 681.921875 712.621094 677.222656 716.539062 C 663.355469 728.039062 657.402344 745.789062 652.738281 762.5625 C 647.539062 781.320312 645.554688 800.792969 640.90625 819.621094 C 635.425781 841.699219 623.890625 861.46875 627.351562 884.800781 C 629.597656 900.027344 644.945312 914.210938 660.203125 912 C 661.648438 911.789062 663.007812 911.339844 664.328125 910.800781 C 671.113281 919.378906 681.675781 928.078125 693.074219 922.128906 C 696.449219 920.386719 699.320312 917.933594 701.84375 915.132812 C 701.878906 915.132812 701.914062 915.132812 701.914062 915.183594 C 708.5625 917.933594 716.566406 917.359375 722.429688 913.113281 C 722.832031 912.851562 723.179688 912.539062 723.472656 912.226562 C 767.496094 905.507812 775.484375 790.960938 776.144531 760.472656 C 776.144531 760.386719 776.144531 760.316406 776.109375 760.230469 C 776.269531 759.378906 776.269531 758.492188 775.953125 757.480469 C 773.78125 750.519531 769.585938 740.65625 762.328125 736.964844 C 777.121094 686.15625 765.773438 631.464844 751.835938 581.714844 C 751.679688 581.246094 751.523438 580.828125 751.332031 580.429688 C 750.742188 578.132812 748.964844 576.164062 745.886719 576.164062 C 744.460938 576.164062 743.066406 576.199219 741.65625 576.355469 C 731.21875 545 713.417969 517.230469 696.519531 489.039062 C 683.816406 467.828125 664.867188 451.125 644.09375 438.109375 C 598.101562 409.363281 539.480469 402.417969 486.457031 406.734375 C 437.476562 410.683594 386.839844 424.328125 346.433594 453.074219 C 305.335938 482.273438 282.660156 527.722656 272.953125 576.199219 C 272.640625 576.164062 272.324219 576.164062 272.011719 576.164062 C 268.898438 576.164062 267.121094 578.132812 266.582031 580.429688 C 266.375 580.828125 266.183594 581.246094 266.078125 581.714844 C 252.054688 631.742188 240.621094 686.78125 255.8125 737.820312 C 248.78125 741.507812 244.675781 748.695312 241.945312 757.480469 C 241.628906 758.492188 241.597656 759.378906 241.753906 760.230469 C 241.753906 760.316406 241.71875 760.386719 241.753906 760.472656 " fill-opacity="1" fill-rule="nonzero"/><path fill="#1e1e1e" d="M 694.433594 697.535156 C 694.03125 679.4375 693.179688 661.410156 690.308594 643.558594 C 689.140625 636.128906 677.917969 639.277344 679.085938 646.65625 C 681.765625 663.484375 682.425781 680.5 682.773438 697.535156 C 682.929688 705.035156 694.589844 705.035156 694.433594 697.535156 " fill-opacity="1" fill-rule="nonzero"/><path fill="#1e1e1e" d="M 678.230469 694.28125 C 678.265625 683.5625 678.613281 672.878906 676.40625 662.316406 C 674.855469 654.972656 663.617188 658.070312 665.179688 665.414062 C 667.164062 674.898438 666.609375 684.640625 666.574219 694.28125 C 666.539062 701.816406 678.199219 701.816406 678.230469 694.28125 " fill-opacity="1" fill-rule="nonzero"/><path fill="#1e1e1e" d="M 661.71875 709.820312 C 661.71875 690.941406 661.648438 672.21875 658.273438 653.5625 C 656.949219 646.203125 645.726562 649.335938 647.03125 656.679688 C 650.21875 674.269531 650.058594 692.019531 650.058594 709.820312 C 650.058594 717.355469 661.71875 717.355469 661.71875 709.820312 " fill-opacity="1" fill-rule="nonzero"/><path fill="#1e1e1e" d="M 635.496094 630.855469 C 632.972656 663.515625 634.992188 696.214844 635.199219 728.925781 C 635.234375 736.425781 646.894531 736.460938 646.839844 728.925781 C 646.648438 696.214844 644.632812 663.515625 647.15625 630.855469 C 647.730469 623.355469 636.085938 623.390625 635.496094 630.855469 " fill-opacity="1" fill-rule="nonzero"/><path fill="#1e1e1e" d="M 630.640625 626 C 630.640625 618.5 619 618.5 619 626 C 619.035156 662.351562 619.3125 698.703125 619.3125 735.070312 C 619.3125 742.605469 630.953125 742.605469 630.953125 735.070312 C 630.953125 698.703125 630.691406 662.351562 630.640625 626 " fill-opacity="1" fill-rule="nonzero"/><path fill="#1e1e1e" d="M 617.363281 695.257812 C 617.433594 681.492188 618.027344 667.867188 615.886719 654.226562 C 614.71875 646.8125 603.496094 649.960938 604.628906 657.339844 C 606.609375 669.886719 605.792969 682.625 605.707031 695.257812 C 605.671875 702.789062 617.328125 702.789062 617.363281 695.257812 " fill-opacity="1" fill-rule="nonzero"/><path fill="#1e1e1e" d="M 599.269531 708.21875 C 599.425781 689.460938 601.128906 670.859375 597.753906 652.292969 C 596.398438 644.917969 585.15625 648.011719 586.511719 655.410156 C 589.714844 672.84375 587.730469 690.628906 587.609375 708.21875 C 587.539062 715.71875 599.179688 715.71875 599.269531 708.21875 " fill-opacity="1" fill-rule="nonzero"/><path fill="#1e1e1e" d="M 582.40625 726.019531 C 582.632812 692.386719 585.050781 658.855469 580.265625 625.410156 C 579.222656 617.996094 568 621.179688 569.042969 628.523438 C 573.671875 660.871094 570.992188 693.5 570.746094 726.019531 C 570.714844 733.554688 582.371094 733.503906 582.40625 726.019531 " fill-opacity="1" fill-rule="nonzero"/><path fill="#1e1e1e" d="M 553.277344 635.398438 C 553.035156 664.214844 553.660156 693.046875 555.574219 721.828125 C 556.027344 729.273438 567.683594 729.308594 567.214844 721.828125 C 565.320312 693.046875 564.691406 664.214844 564.917969 635.398438 C 565.003906 627.863281 553.347656 627.863281 553.277344 635.398438 " fill-opacity="1" fill-rule="nonzero"/><path fill="#1e1e1e" d="M 536.765625 752.226562 C 537.390625 759.65625 549.03125 759.726562 548.421875 752.226562 C 544.648438 706.445312 548.371094 660.488281 545.847656 614.65625 C 545.429688 607.191406 533.769531 607.15625 534.207031 614.65625 C 536.730469 660.488281 533.003906 706.445312 536.765625 752.226562 " fill-opacity="1" fill-rule="nonzero"/><path fill="#1e1e1e" d="M 517.691406 714.363281 C 518.582031 721.707031 530.238281 721.828125 529.351562 714.363281 C 525.855469 686.085938 528.378906 657.617188 527.054688 629.21875 C 526.707031 621.753906 515.046875 621.722656 515.394531 629.21875 C 516.71875 657.617188 514.195312 686.085938 517.691406 714.363281 " fill-opacity="1" fill-rule="nonzero"/><path fill="#1e1e1e" d="M 507.007812 712.101562 C 507.128906 692.421875 508.644531 672.757812 506.035156 653.179688 C 505.023438 645.839844 493.382812 645.769531 494.394531 653.179688 C 496.984375 672.757812 495.472656 692.421875 495.367188 712.101562 C 495.28125 719.601562 506.9375 719.601562 507.007812 712.101562 " fill-opacity="1" fill-rule="nonzero"/><path fill="#1e1e1e" d="M 478.195312 649.960938 C 478.035156 674.898438 475.929688 699.832031 478.855469 724.734375 C 479.707031 732.078125 491.347656 732.199219 490.496094 724.734375 C 487.589844 699.832031 489.679688 674.898438 489.851562 649.960938 C 489.886719 642.429688 478.226562 642.429688 478.195312 649.960938 " fill-opacity="1" fill-rule="nonzero"/><path fill="#1e1e1e" d="M 463.316406 635.710938 C 463.28125 671.207031 462.722656 706.707031 462.96875 742.203125 C 463.039062 749.703125 474.695312 749.703125 474.609375 742.203125 C 474.382812 706.707031 474.921875 671.207031 474.957031 635.710938 C 474.957031 628.210938 463.316406 628.210938 463.316406 635.710938 " fill-opacity="1" fill-rule="nonzero"/><path fill="#1e1e1e" d="M 442.921875 611.734375 C 442.574219 664.40625 442.070312 717.078125 444.210938 769.714844 C 444.503906 777.214844 456.164062 777.25 455.851562 769.714844 C 453.710938 717.078125 454.234375 664.40625 454.582031 611.734375 C 454.617188 604.25 442.957031 604.25 442.921875 611.734375 " fill-opacity="1" fill-rule="nonzero"/><path fill="#1e1e1e" d="M 426.410156 620.171875 C 423.660156 658.125 424.164062 696.109375 425.085938 734.09375 C 425.277344 741.59375 436.9375 741.628906 436.746094 734.09375 C 435.804688 696.109375 435.300781 658.125 438.066406 620.171875 C 438.605469 612.671875 426.914062 612.707031 426.410156 620.171875 " fill-opacity="1" fill-rule="nonzero"/><path fill="#1e1e1e" d="M 420.894531 699.484375 C 420.925781 684.796875 421.171875 670.128906 420.578125 655.445312 C 420.265625 647.980469 408.625 647.945312 408.9375 655.445312 C 409.511719 670.128906 409.285156 684.796875 409.234375 699.484375 C 409.234375 706.984375 420.894531 706.984375 420.894531 699.484375 " fill-opacity="1" fill-rule="nonzero"/><path fill="#1e1e1e" d="M 391.765625 633.761719 L 391.765625 726.996094 C 391.765625 734.757812 403.421875 734.757812 403.421875 726.996094 L 403.421875 633.761719 C 403.421875 626.261719 391.765625 626.261719 391.765625 633.761719 " fill-opacity="1" fill-rule="nonzero"/><path fill="#1e1e1e" d="M 387.570312 701.433594 C 387.640625 686.015625 388.457031 670.789062 386.054688 655.511719 C 384.890625 648.101562 373.667969 651.285156 374.832031 658.628906 C 377.078125 672.757812 376 687.128906 375.910156 701.433594 C 375.878906 708.933594 387.535156 708.933594 387.570312 701.433594 " fill-opacity="1" fill-rule="nonzero"/><path fill="#1e1e1e" d="M 360.6875 637.644531 C 360.6875 637.644531 360.6875 692.019531 360.6875 719.21875 C 360.6875 726.996094 372.34375 726.996094 372.34375 719.21875 L 372.34375 637.644531 C 372.34375 629.882812 360.6875 629.882812 360.6875 637.644531 " fill-opacity="1" fill-rule="nonzero"/><path fill="#1e1e1e" d="M 355.171875 706.601562 C 355.292969 687.949219 356.335938 669.503906 353.707031 650.972656 C 352.613281 643.59375 341.390625 646.742188 342.433594 654.085938 C 344.957031 671.488281 343.632812 689.078125 343.527344 706.601562 C 343.476562 714.136719 355.136719 714.082031 355.171875 706.601562 " fill-opacity="1" fill-rule="nonzero"/><path fill="#1e1e1e" d="M 328.652344 668.71875 C 328.652344 668.71875 328.597656 680.222656 328.339844 686.363281 C 327.9375 693.898438 339.597656 694.246094 339.996094 686.78125 C 340.257812 680.605469 340.292969 672.601562 340.292969 668.71875 C 340.292969 660.960938 328.652344 660.960938 328.652344 668.71875 " fill-opacity="1" fill-rule="nonzero"/><path fill="#1e1e1e" d="M 284.679688 893.085938 C 283.671875 888.144531 280.957031 881.390625 280.589844 879.980469 C 278.886719 872.640625 277.300781 865.261719 275.734375 857.847656 C 272.863281 844.050781 269.105469 830.460938 266.183594 816.714844 C 264.25 807.4375 261.953125 778.535156 253.636719 766.914062 C 255.082031 794.996094 262.492188 869.296875 284.679688 893.085938 Z M 289.691406 621.53125 C 291.464844 611.628906 291.832031 601.449219 294.460938 591.773438 C 288.4375 590.417969 282.503906 588.675781 276.398438 588.050781 C 263.660156 634.074219 253.359375 684.101562 265.992188 731.066406 C 274.414062 726.492188 283.269531 723.027344 292.683594 721.167969 C 278.660156 691.601562 282.382812 656.261719 288.558594 624.941406 C 288.683594 624.367188 288.875 623.859375 289.066406 623.425781 C 289.222656 622.957031 289.414062 622.539062 289.65625 622.105469 C 289.65625 621.914062 289.65625 621.722656 289.691406 621.53125 Z M 301.835938 900.429688 C 302.308594 899.523438 302.742188 898.550781 303.160156 897.625 C 293.570312 870.5 289.65625 840.761719 282.417969 812.867188 C 278.660156 798.371094 274.96875 783.894531 271.542969 769.332031 C 270.847656 766.214844 270.777344 762.804688 270.535156 759.65625 C 269.679688 747.074219 257.917969 749.789062 253.828125 758.839844 C 264.667969 766.949219 267 791.273438 269.054688 801.714844 C 275.578125 834.148438 286.195312 866.234375 291.867188 898.707031 C 294.964844 900.21875 298.269531 900.878906 301.835938 900.429688 Z M 306.585938 716.851562 C 308.414062 715.179688 310.191406 713.824219 311.980469 712.726562 C 302.464844 686.3125 301.332031 659.011719 303.125 631.167969 C 301.835938 630.925781 300.566406 630.804688 299.277344 630.769531 C 293.761719 659.636719 290.578125 692.296875 304.570312 718.992188 C 305.230469 718.242188 305.839844 717.511719 306.585938 716.851562 Z M 340.292969 896.808594 C 340.292969 896.773438 340.34375 896.6875 340.34375 896.652344 C 335.210938 888.230469 332.097656 878.050781 329.816406 869.351562 C 321.882812 836.792969 311.914062 804.792969 303.351562 772.394531 C 300.480469 761.398438 296.164062 745.125 298.738281 731.796875 C 298.703125 731.796875 298.617188 731.832031 298.546875 731.832031 C 290.351562 732.859375 282.660156 735.644531 275.320312 739.296875 C 279.007812 743.179688 281.027344 749.09375 281.722656 753.949219 C 285.0625 777.824219 291.464844 800.828125 297.417969 824.28125 C 303.351562 847.949219 306.554688 872.953125 314.851562 895.871094 C 315.390625 897.46875 315.289062 898.828125 314.695312 899.957031 C 314.59375 900.429688 314.46875 900.878906 314.277344 901.316406 C 313.878906 902.132812 313.496094 902.953125 313.113281 903.769531 C 313.21875 904.03125 313.304688 904.308594 313.375 904.621094 C 313.929688 907.25 315.324219 908.972656 317.183594 909.929688 C 320.402344 910.640625 323.710938 910.746094 326.738281 910.171875 C 330.199219 909.128906 333.574219 907.144531 336.03125 904.691406 C 337.003906 903.335938 337.734375 901.785156 338.238281 899.90625 C 338.621094 898.480469 339.371094 897.46875 340.292969 896.808594 Z M 341.074219 866.234375 C 343.753906 876.484375 352.890625 900.777344 363.835938 900.722656 C 340.535156 844.484375 321.8125 787.429688 314.816406 726.75 C 311.980469 729.207031 310.121094 733.050781 310 738.445312 C 309.839844 747.109375 310.972656 755.496094 313.148438 763.851562 C 322.195312 798.023438 332.6875 831.871094 341.074219 866.234375 Z M 376.035156 889.621094 C 384.890625 872.640625 375.964844 853.777344 370.238281 837.230469 C 362.738281 815.425781 360.773438 792.507812 355.101562 770.253906 C 351.636719 756.734375 347.828125 739.925781 337.699219 729.621094 C 332.84375 724.664062 326.007812 722.679688 320.335938 724.003906 C 327.015625 785.007812 345.859375 842.242188 369.230469 898.636719 C 371.492188 896.929688 373.738281 894.007812 376.035156 889.621094 Z M 697.773438 722.019531 C 689.332031 719.253906 680.164062 728.421875 676.476562 734.53125 C 669.84375 745.542969 665.753906 757.742188 662.816406 770.253906 C 657.054688 794.492188 654.0625 818.855469 645.796875 842.433594 C 640.351562 857.96875 629.789062 887.289062 648.789062 898.359375 C 672.332031 841.421875 691.316406 783.652344 697.773438 722.019531 Z M 706.003906 758.332031 C 707.742188 749.285156 710.578125 735.957031 704.679688 727.570312 C 704.210938 726.875 703.707031 726.246094 703.167969 725.707031 C 696.292969 786.730469 677.535156 844.050781 654.113281 900.566406 C 667.355469 902.445312 674.457031 875.25 676.824219 866.234375 C 685.609375 830.199219 699.007812 794.71875 706.003906 758.332031 Z M 713.070312 719.410156 C 727.320312 692.644531 724.1875 659.792969 718.621094 630.769531 C 717.347656 630.804688 716.0625 630.925781 714.773438 631.167969 C 716.53125 658.890625 715.398438 686.121094 706.039062 712.414062 C 708.371094 713.734375 710.511719 715.5625 712.214844 718.015625 C 712.527344 718.488281 712.753906 718.9375 713.070312 719.410156 Z M 718.394531 580.933594 C 722.308594 580.203125 726.171875 579.195312 730.050781 578.339844 C 720.027344 548.777344 703.359375 521.003906 686.460938 494.9375 C 672.246094 472.960938 652.671875 455.160156 629.371094 443.15625 C 585.867188 420.792969 534.9375 413.644531 486.457031 418.375 C 440.015625 422.882812 390.285156 434.644531 352.300781 463.128906 C 314.539062 491.40625 293.953125 532.160156 284.523438 577.59375 C 288.367188 578.410156 292.214844 579.386719 296.058594 580.238281 C 307.597656 539.761719 327.554688 503.640625 361.3125 477.3125 C 394.984375 451.054688 441.164062 434.125 483.273438 428.957031 C 590.410156 415.75 683.207031 481.609375 718.394531 580.933594 Z M 736.175781 753.949219 C 737.027344 747.648438 739.324219 742.726562 743.066406 739.542969 C 735.601562 735.765625 727.71875 732.894531 719.367188 731.832031 C 719.175781 731.796875 718.96875 731.761719 718.777344 731.726562 C 718.671875 731.796875 718.515625 731.886719 718.359375 731.953125 C 721.734375 746.796875 717.296875 763.121094 713.035156 777.71875 C 704.140625 808.046875 695.5625 838.621094 688.0625 869.351562 C 685.765625 878.207031 681.261719 893.851562 673.378906 903.558594 C 677.917969 909.269531 684.324219 916.035156 691.003906 909.511719 C 696.257812 904.449219 699.894531 898.132812 703.792969 892.023438 C 704.054688 891.605469 704.367188 891.257812 704.679688 890.945312 C 712.5625 867.089844 716.0625 841.335938 722.359375 817.027344 C 727.789062 796.007812 733.199219 775.386719 736.175781 753.949219 Z M 751.871094 731.066406 C 764.539062 684.101562 754.238281 634.074219 741.464844 588.050781 C 735.359375 588.675781 729.425781 590.417969 723.4375 591.773438 C 726.085938 601.449219 726.433594 611.628906 728.191406 621.53125 C 728.222656 621.722656 728.222656 621.914062 728.257812 622.105469 C 728.484375 622.539062 728.675781 622.957031 728.796875 623.425781 C 729.042969 623.859375 729.234375 624.367188 729.355469 624.941406 C 735.515625 656.261719 739.257812 691.601562 725.230469 721.167969 C 734.628906 723.027344 743.449219 726.492188 751.871094 731.066406 Z M 764.035156 758.839844 C 760 749.789062 748.183594 747.074219 747.332031 759.65625 C 747.140625 762.804688 747.050781 766.214844 746.320312 769.332031 C 742.945312 783.894531 739.203125 798.371094 735.445312 812.867188 C 728.257812 840.761719 724.292969 870.5 714.703125 897.625 C 715.175781 898.550781 715.558594 899.523438 716.027344 900.429688 C 719.59375 900.878906 722.933594 900.21875 726.050781 898.707031 C 731.6875 866.234375 742.164062 834.078125 748.808594 801.714844 C 750.949219 791.273438 753.195312 766.949219 764.035156 758.839844 Z M 732.695312 893.695312 C 755.300781 870.5 762.835938 795.152344 764.261719 766.84375 C 755.875 778.449219 753.855469 807.386719 751.679688 816.714844 C 748.53125 830.425781 745.035156 844.050781 742.128906 857.847656 C 740.109375 867.558594 738.664062 877.964844 735.410156 887.324219 C 735.097656 888.265625 733.550781 891.101562 732.695312 893.695312 Z M 775.953125 757.480469 C 776.269531 758.492188 776.269531 759.378906 776.109375 760.230469 C 776.144531 760.316406 776.144531 760.386719 776.144531 760.472656 C 775.484375 790.960938 767.496094 905.507812 723.472656 912.226562 C 723.179688 912.539062 722.832031 912.851562 722.429688 913.113281 C 716.566406 917.359375 708.5625 917.933594 701.914062 915.183594 C 701.914062 915.132812 701.878906 915.132812 701.84375 915.132812 C 699.320312 917.933594 696.449219 920.386719 693.074219 922.128906 C 681.675781 928.078125 671.113281 919.378906 664.328125 910.800781 C 663.007812 911.339844 661.648438 911.789062 660.203125 912 C 644.945312 914.210938 629.597656 900.027344 627.351562 884.800781 C 623.890625 861.46875 635.425781 841.699219 640.90625 819.621094 C 645.554688 800.792969 647.539062 781.320312 652.738281 762.5625 C 657.402344 745.789062 663.355469 728.039062 677.222656 716.539062 C 681.921875 712.621094 688.324219 710.132812 694.589844 709.890625 C 704.261719 683.023438 704.90625 655.320312 702.855469 626.976562 C 702.664062 624.433594 703.863281 622.816406 705.535156 622 C 706.074219 621.53125 706.785156 621.148438 707.605469 620.867188 C 710.386719 619.980469 713.226562 619.476562 716.148438 619.234375 C 715.015625 611.125 714.390625 602.964844 712.25 595.113281 C 711.207031 594.453125 710.320312 593.445312 709.847656 591.929688 C 677.882812 491.441406 580.265625 420.167969 473.09375 442.300781 C 434.378906 450.304688 392.929688 464.800781 362.636719 491.09375 C 334.082031 515.925781 317.304688 547.992188 307.160156 583.820312 C 308.136719 585.023438 308.519531 586.691406 307.71875 588.710938 C 303.75 598.457031 303.160156 608.914062 301.765625 619.234375 C 304.636719 619.476562 307.511719 619.980469 310.277344 620.867188 C 311.128906 621.148438 311.789062 621.53125 312.363281 622 C 314.035156 622.816406 315.253906 624.433594 315.042969 626.976562 C 312.992188 655.007812 313.617188 682.398438 322.980469 709.003906 C 345.773438 707.957031 362.007812 748.972656 366.324219 767.15625 C 370.742188 785.949219 372.378906 805.804688 378.207031 824.246094 C 384.890625 845.460938 396.113281 867.089844 389.050781 889.585938 C 385.308594 901.542969 370.011719 917.238281 356.265625 911.40625 C 353.585938 910.242188 351.167969 908.726562 348.992188 906.902344 C 347.375 910.171875 344.921875 913.042969 341.859375 915.410156 C 338.238281 918.523438 333.800781 920.507812 329 921.394531 C 323.710938 922.683594 318.316406 922.632812 313.652344 921.011719 C 307.441406 919.570312 301.542969 916.664062 296.949219 912.503906 C 250.730469 909.824219 242.414062 791.5 241.753906 760.472656 C 241.71875 760.386719 241.753906 760.316406 241.753906 760.230469 C 241.597656 759.378906 241.628906 758.492188 241.945312 757.480469 C 244.675781 748.695312 248.78125 741.507812 255.8125 737.820312 C 240.621094 686.78125 252.054688 631.742188 266.078125 581.714844 C 266.183594 581.246094 266.375 580.828125 266.582031 580.429688 C 267.121094 578.132812 268.898438 576.164062 272.011719 576.164062 C 272.324219 576.164062 272.640625 576.164062 272.953125 576.199219 C 282.660156 527.722656 305.335938 482.273438 346.433594 453.074219 C 386.839844 424.328125 437.476562 410.683594 486.457031 406.734375 C 539.480469 402.417969 598.101562 409.363281 644.09375 438.109375 C 664.867188 451.125 683.816406 467.828125 696.519531 489.039062 C 713.417969 517.230469 731.21875 545 741.65625 576.355469 C 743.066406 576.199219 744.460938 576.164062 745.886719 576.164062 C 748.964844 576.164062 750.742188 578.132812 751.332031 580.429688 C 751.523438 580.828125 751.679688 581.246094 751.835938 581.714844 C 765.773438 631.464844 777.121094 686.15625 762.328125 736.964844 C 769.585938 740.65625 773.78125 750.519531 775.953125 757.480469 " fill-opacity="1" fill-rule="nonzero"/><path fill="#1e1e1e" d="M 764.261719 766.84375 C 762.835938 795.152344 755.300781 870.5 732.695312 893.695312 C 733.550781 891.101562 735.097656 888.265625 735.410156 887.324219 C 738.664062 877.964844 740.109375 867.558594 742.128906 857.847656 C 745.035156 844.050781 748.53125 830.425781 751.679688 816.714844 C 753.855469 807.386719 755.875 778.449219 764.261719 766.84375 " fill-opacity="1" fill-rule="nonzero"/><path fill="#1e1e1e" d="M 747.332031 759.65625 C 748.183594 747.074219 760 749.789062 764.035156 758.839844 C 753.195312 766.949219 750.949219 791.273438 748.808594 801.714844 C 742.164062 834.078125 731.6875 866.234375 726.050781 898.707031 C 722.933594 900.21875 719.59375 900.878906 716.027344 900.429688 C 715.558594 899.523438 715.175781 898.550781 714.703125 897.625 C 724.292969 870.5 728.257812 840.761719 735.445312 812.867188 C 739.203125 798.371094 742.945312 783.894531 746.320312 769.332031 C 747.050781 766.214844 747.140625 762.804688 747.332031 759.65625 " fill-opacity="1" fill-rule="nonzero"/><path fill="#1e1e1e" d="M 741.464844 588.050781 C 754.238281 634.074219 764.539062 684.101562 751.871094 731.066406 C 743.449219 726.492188 734.628906 723.027344 725.230469 721.167969 C 739.257812 691.601562 735.515625 656.261719 729.355469 624.941406 C 729.234375 624.367188 729.042969 623.859375 728.796875 623.425781 C 728.675781 622.957031 728.484375 622.539062 728.257812 622.105469 C 728.222656 621.914062 728.222656 621.722656 728.191406 621.53125 C 726.433594 611.628906 726.085938 601.449219 723.4375 591.773438 C 729.425781 590.417969 735.359375 588.675781 741.464844 588.050781 " fill-opacity="1" fill-rule="nonzero"/><path fill="#1e1e1e" d="M 743.066406 739.542969 C 739.324219 742.726562 737.027344 747.648438 736.175781 753.949219 C 733.199219 775.386719 727.789062 796.007812 722.359375 817.027344 C 716.0625 841.335938 712.5625 867.089844 704.679688 890.945312 C 704.367188 891.257812 704.054688 891.605469 703.792969 892.023438 C 699.894531 898.132812 696.257812 904.449219 691.003906 909.511719 C 684.324219 916.035156 677.917969 909.269531 673.378906 903.558594 C 681.261719 893.851562 685.765625 878.207031 688.0625 869.351562 C 695.5625 838.621094 704.140625 808.046875 713.035156 777.71875 C 717.296875 763.121094 721.734375 746.796875 718.359375 731.953125 C 718.515625 731.886719 718.671875 731.796875 718.777344 731.726562 C 718.96875 731.761719 719.175781 731.796875 719.367188 731.832031 C 727.71875 732.894531 735.601562 735.765625 743.066406 739.542969 " fill-opacity="1" fill-rule="nonzero"/><path fill="#1e1e1e" d="M 730.050781 578.339844 C 726.171875 579.195312 722.308594 580.203125 718.394531 580.933594 C 683.207031 481.609375 590.410156 415.75 483.273438 428.957031 C 441.164062 434.125 394.984375 451.054688 361.3125 477.3125 C 327.554688 503.640625 307.597656 539.761719 296.058594 580.238281 C 292.214844 579.386719 288.367188 578.410156 284.523438 577.59375 C 293.953125 532.160156 314.539062 491.40625 352.300781 463.128906 C 390.285156 434.644531 440.015625 422.882812 486.457031 418.375 C 534.9375 413.644531 585.867188 420.792969 629.371094 443.15625 C 652.671875 455.160156 672.246094 472.960938 686.460938 494.9375 C 703.359375 521.003906 720.027344 548.777344 730.050781 578.339844 " fill-opacity="1" fill-rule="nonzero"/><path fill="#1e1e1e" d="M 718.621094 630.769531 C 724.1875 659.792969 727.320312 692.644531 713.070312 719.410156 C 712.753906 718.9375 712.527344 718.488281 712.214844 718.015625 C 710.511719 715.5625 708.371094 713.734375 706.039062 712.414062 C 715.398438 686.121094 716.53125 658.890625 714.773438 631.167969 C 716.0625 630.925781 717.347656 630.804688 718.621094 630.769531 " fill-opacity="1" fill-rule="nonzero"/><path fill="#1e1e1e" d="M 704.679688 727.570312 C 710.578125 735.957031 707.742188 749.285156 706.003906 758.332031 C 699.007812 794.71875 685.609375 830.199219 676.824219 866.234375 C 674.457031 875.25 667.355469 902.445312 654.113281 900.566406 C 677.535156 844.050781 696.292969 786.730469 703.167969 725.707031 C 703.707031 726.246094 704.210938 726.875 704.679688 727.570312 " fill-opacity="1" fill-rule="nonzero"/><path fill="#1e1e1e" d="M 676.476562 734.53125 C 680.164062 728.421875 689.332031 719.253906 697.773438 722.019531 C 691.316406 783.652344 672.332031 841.421875 648.789062 898.359375 C 629.789062 887.289062 640.351562 857.96875 645.796875 842.433594 C 654.0625 818.855469 657.054688 794.492188 662.816406 770.253906 C 665.753906 757.742188 669.84375 745.542969 676.476562 734.53125 " fill-opacity="1" fill-rule="nonzero"/><path fill="#1e1e1e" d="M 694.433594 697.535156 C 694.589844 705.035156 682.929688 705.035156 682.773438 697.535156 C 682.425781 680.5 681.765625 663.484375 679.085938 646.65625 C 677.917969 639.277344 689.140625 636.128906 690.308594 643.558594 C 693.179688 661.410156 694.03125 679.4375 694.433594 697.535156 " fill-opacity="1" fill-rule="nonzero"/><path fill="#1e1e1e" d="M 676.40625 662.316406 C 678.613281 672.878906 678.265625 683.5625 678.230469 694.28125 C 678.199219 701.816406 666.539062 701.816406 666.574219 694.28125 C 666.609375 684.640625 667.164062 674.898438 665.179688 665.414062 C 663.617188 658.070312 674.855469 654.972656 676.40625 662.316406 " fill-opacity="1" fill-rule="nonzero"/><path fill="#1e1e1e" d="M 658.273438 653.5625 C 661.648438 672.21875 661.71875 690.941406 661.71875 709.820312 C 661.71875 717.355469 650.058594 717.355469 650.058594 709.820312 C 650.058594 692.019531 650.21875 674.269531 647.03125 656.679688 C 645.726562 649.335938 656.949219 646.1875 658.273438 653.5625 " fill-opacity="1" fill-rule="nonzero"/><path fill="#1e1e1e" d="M 635.496094 630.855469 C 636.085938 623.390625 647.730469 623.355469 647.15625 630.855469 C 644.632812 663.515625 646.648438 696.230469 646.839844 728.925781 C 646.894531 736.460938 635.234375 736.425781 635.199219 728.925781 C 634.992188 696.230469 632.972656 663.515625 635.496094 630.855469 " fill-opacity="1" fill-rule="nonzero"/><path fill="#1e1e1e" d="M 630.640625 626 C 630.691406 662.351562 630.953125 698.703125 630.953125 735.070312 C 630.953125 742.605469 619.3125 742.605469 619.3125 735.070312 C 619.3125 698.703125 619.035156 662.351562 619 626 C 619 618.5 630.640625 618.5 630.640625 626 " fill-opacity="1" fill-rule="nonzero"/><path fill="#1e1e1e" d="M 615.886719 654.226562 C 618.027344 667.867188 617.433594 681.492188 617.363281 695.257812 C 617.328125 702.789062 605.671875 702.789062 605.707031 695.257812 C 605.792969 682.625 606.609375 669.886719 604.628906 657.339844 C 603.496094 649.960938 614.71875 646.8125 615.886719 654.226562 " fill-opacity="1" fill-rule="nonzero"/><path fill="#1e1e1e" d="M 597.753906 652.292969 C 601.128906 670.859375 599.425781 689.460938 599.269531 708.21875 C 599.179688 715.71875 587.539062 715.71875 587.609375 708.21875 C 587.730469 690.628906 589.714844 672.84375 586.511719 655.410156 C 585.15625 648.011719 596.398438 644.917969 597.753906 652.292969 " fill-opacity="1" fill-rule="nonzero"/><path fill="#1e1e1e" d="M 580.265625 625.410156 C 585.050781 658.855469 582.632812 692.386719 582.40625 726.019531 C 582.371094 733.503906 570.714844 733.554688 570.746094 726.019531 C 570.992188 693.5 573.671875 660.871094 569.042969 628.523438 C 568 621.179688 579.222656 617.996094 580.265625 625.410156 " fill-opacity="1" fill-rule="nonzero"/><path fill="#1e1e1e" d="M 567.214844 721.828125 C 567.683594 729.308594 556.027344 729.273438 555.558594 721.828125 C 553.660156 693.046875 553.035156 664.214844 553.277344 635.398438 C 553.347656 627.863281 565.003906 627.863281 564.917969 635.398438 C 564.691406 664.214844 565.320312 693.046875 567.214844 721.828125 " fill-opacity="1" fill-rule="nonzero"/><path fill="#1e1e1e" d="M 548.421875 752.226562 C 549.03125 759.726562 537.390625 759.65625 536.765625 752.226562 C 533.003906 706.445312 536.730469 660.488281 534.207031 614.65625 C 533.769531 607.15625 545.429688 607.191406 545.847656 614.65625 C 548.371094 660.488281 544.648438 706.445312 548.421875 752.226562 " fill-opacity="1" fill-rule="nonzero"/><path fill="#1e1e1e" d="M 529.351562 714.363281 C 530.238281 721.828125 518.582031 721.707031 517.691406 714.363281 C 514.195312 686.085938 516.71875 657.617188 515.394531 629.21875 C 515.046875 621.722656 526.707031 621.753906 527.054688 629.21875 C 528.378906 657.617188 525.855469 686.085938 529.351562 714.363281 " fill-opacity="1" fill-rule="nonzero"/><path fill="#1e1e1e" d="M 506.035156 653.179688 C 508.644531 672.757812 507.128906 692.421875 507.007812 712.101562 C 506.9375 719.601562 495.28125 719.601562 495.367188 712.101562 C 495.472656 692.421875 496.984375 672.757812 494.394531 653.179688 C 493.382812 645.769531 505.023438 645.839844 506.035156 653.179688 " fill-opacity="1" fill-rule="nonzero"/><path fill="#1e1e1e" d="M 490.496094 724.734375 C 491.347656 732.199219 479.707031 732.078125 478.855469 724.734375 C 475.929688 699.832031 478.035156 674.898438 478.195312 649.960938 C 478.226562 642.429688 489.886719 642.429688 489.851562 649.960938 C 489.679688 674.898438 487.589844 699.832031 490.496094 724.734375 " fill-opacity="1" fill-rule="nonzero"/><path fill="#1e1e1e" d="M 474.609375 742.203125 C 474.695312 749.703125 463.039062 749.703125 462.96875 742.203125 C 462.722656 706.707031 463.28125 671.207031 463.316406 635.710938 C 463.316406 628.210938 474.957031 628.210938 474.957031 635.710938 C 474.921875 671.207031 474.382812 706.707031 474.609375 742.203125 " fill-opacity="1" fill-rule="nonzero"/><path fill="#1e1e1e" d="M 455.851562 769.714844 C 456.164062 777.25 444.503906 777.214844 444.210938 769.714844 C 442.070312 717.078125 442.574219 664.40625 442.921875 611.734375 C 442.957031 604.25 454.617188 604.25 454.582031 611.734375 C 454.234375 664.40625 453.710938 717.078125 455.851562 769.714844 " fill-opacity="1" fill-rule="nonzero"/><path fill="#1e1e1e" d="M 426.410156 620.171875 C 426.914062 612.707031 438.605469 612.671875 438.066406 620.171875 C 435.300781 658.125 435.804688 696.109375 436.746094 734.09375 C 436.9375 741.628906 425.277344 741.59375 425.085938 734.09375 C 424.164062 696.109375 423.660156 658.125 426.410156 620.171875 " fill-opacity="1" fill-rule="nonzero"/><path fill="#1e1e1e" d="M 420.578125 655.445312 C 421.171875 670.128906 420.925781 684.796875 420.894531 699.484375 C 420.894531 706.984375 409.234375 706.984375 409.234375 699.484375 C 409.285156 684.796875 409.511719 670.128906 408.9375 655.445312 C 408.625 647.945312 420.265625 647.980469 420.578125 655.445312 " fill-opacity="1" fill-rule="nonzero"/><path fill="#1e1e1e" d="M 403.421875 633.761719 C 403.421875 664.960938 403.421875 695.917969 403.421875 726.996094 C 403.421875 734.757812 391.765625 734.757812 391.765625 726.996094 C 391.765625 695.917969 391.765625 664.960938 391.765625 633.761719 C 391.765625 626.261719 403.421875 626.261719 403.421875 633.761719 " fill-opacity="1" fill-rule="nonzero"/><path fill="#1e1e1e" d="M 386.054688 655.511719 C 388.457031 670.789062 387.640625 686.015625 387.570312 701.433594 C 387.535156 708.933594 375.878906 708.933594 375.910156 701.433594 C 376 687.128906 377.078125 672.757812 374.832031 658.628906 C 373.667969 651.285156 384.890625 648.101562 386.054688 655.511719 " fill-opacity="1" fill-rule="nonzero"/><path fill="#1e1e1e" d="M 370.238281 837.230469 C 375.964844 853.777344 384.890625 872.640625 376.035156 889.621094 C 373.738281 894.007812 371.492188 896.929688 369.230469 898.636719 C 345.859375 842.242188 327.015625 785.007812 320.335938 724.003906 C 326.007812 722.679688 332.84375 724.664062 337.699219 729.621094 C 347.828125 739.925781 351.636719 756.734375 355.101562 770.253906 C 360.773438 792.507812 362.738281 815.425781 370.238281 837.230469 " fill-opacity="1" fill-rule="nonzero"/><path fill="#1e1e1e" d="M 372.34375 637.644531 C 372.34375 664.839844 372.34375 692.019531 372.34375 719.21875 C 372.34375 726.996094 360.6875 726.996094 360.6875 719.21875 C 360.6875 692.019531 360.6875 637.644531 360.6875 637.644531 C 360.6875 629.882812 372.34375 629.882812 372.34375 637.644531 " fill-opacity="1" fill-rule="nonzero"/><path fill="#1e1e1e" d="M 363.835938 900.722656 C 352.890625 900.777344 343.753906 876.484375 341.074219 866.234375 C 332.6875 831.871094 322.195312 798.023438 313.148438 763.851562 C 310.972656 755.496094 309.839844 747.109375 310 738.445312 C 310.121094 733.050781 311.980469 729.207031 314.816406 726.75 C 321.8125 787.429688 340.535156 844.484375 363.835938 900.722656 " fill-opacity="1" fill-rule="nonzero"/><path fill="#1e1e1e" d="M 353.707031 650.972656 C 356.335938 669.503906 355.292969 687.949219 355.171875 706.601562 C 355.136719 714.082031 343.476562 714.136719 343.527344 706.601562 C 343.632812 689.078125 344.957031 671.488281 342.433594 654.085938 C 341.390625 646.742188 352.613281 643.59375 353.707031 650.972656 " fill-opacity="1" fill-rule="nonzero"/><path fill="#1e1e1e" d="M 340.34375 896.652344 C 340.34375 896.6875 340.292969 896.773438 340.292969 896.808594 C 339.371094 897.46875 338.621094 898.480469 338.238281 899.90625 C 337.734375 901.785156 337.003906 903.335938 336.03125 904.691406 C 333.574219 907.144531 330.199219 909.128906 326.738281 910.171875 C 323.710938 910.746094 320.402344 910.640625 317.183594 909.929688 C 315.324219 908.972656 313.929688 907.25 313.375 904.621094 C 313.304688 904.308594 313.21875 904.03125 313.113281 903.769531 C 313.496094 902.953125 313.878906 902.132812 314.277344 901.316406 C 314.46875 900.878906 314.59375 900.429688 314.695312 899.957031 C 315.289062 898.828125 315.390625 897.46875 314.851562 895.871094 C 306.554688 872.953125 303.351562 847.949219 297.417969 824.28125 C 291.464844 800.828125 285.0625 777.824219 281.722656 753.949219 C 281.027344 749.09375 279.007812 743.179688 275.320312 739.296875 C 282.660156 735.644531 290.351562 732.859375 298.546875 731.832031 C 298.617188 731.832031 298.703125 731.796875 298.738281 731.796875 C 296.164062 745.125 300.480469 761.398438 303.351562 772.394531 C 311.914062 804.792969 321.882812 836.792969 329.816406 869.351562 C 332.097656 878.050781 335.210938 888.230469 340.34375 896.652344 " fill-opacity="1" fill-rule="nonzero"/><path fill="#1e1e1e" d="M 340.292969 668.71875 C 340.292969 672.601562 340.257812 680.605469 339.996094 686.78125 C 339.597656 694.246094 327.9375 693.898438 328.339844 686.363281 C 328.597656 680.222656 328.652344 668.71875 328.652344 668.71875 C 328.652344 660.960938 340.292969 660.960938 340.292969 668.71875 " fill-opacity="1" fill-rule="nonzero"/><path fill="#1e1e1e" d="M 311.980469 712.726562 C 310.191406 713.824219 308.414062 715.179688 306.585938 716.851562 C 305.839844 717.511719 305.230469 718.242188 304.570312 718.992188 C 290.578125 692.296875 293.761719 659.636719 299.277344 630.769531 C 300.566406 630.804688 301.835938 630.925781 303.125 631.167969 C 301.332031 659.011719 302.464844 686.3125 311.980469 712.726562 " fill-opacity="1" fill-rule="nonzero"/><path fill="#1e1e1e" d="M 303.160156 897.625 C 302.742188 898.550781 302.308594 899.523438 301.835938 900.429688 C 298.269531 900.878906 294.964844 900.21875 291.867188 898.707031 C 286.195312 866.234375 275.578125 834.148438 269.054688 801.714844 C 267 791.273438 264.667969 766.949219 253.828125 758.839844 C 257.917969 749.789062 269.679688 747.074219 270.535156 759.65625 C 270.777344 762.804688 270.847656 766.214844 271.542969 769.332031 C 274.96875 783.894531 278.660156 798.371094 282.417969 812.867188 C 289.65625 840.761719 293.570312 870.5 303.160156 897.625 " fill-opacity="1" fill-rule="nonzero"/><path fill="#1e1e1e" d="M 294.460938 591.773438 C 291.832031 601.449219 291.464844 611.628906 289.691406 621.53125 C 289.65625 621.722656 289.65625 621.914062 289.65625 622.105469 C 289.414062 622.539062 289.222656 622.957031 289.066406 623.425781 C 288.875 623.859375 288.683594 624.367188 288.558594 624.941406 C 282.382812 656.261719 278.660156 691.601562 292.683594 721.167969 C 283.269531 723.027344 274.414062 726.492188 265.992188 731.066406 C 253.359375 684.101562 263.660156 634.074219 276.398438 588.050781 C 282.503906 588.675781 288.4375 590.417969 294.460938 591.773438 " fill-opacity="1" fill-rule="nonzero"/><path fill="#1e1e1e" d="M 280.589844 879.980469 C 280.957031 881.390625 283.671875 888.144531 284.679688 893.085938 C 262.492188 869.296875 255.082031 794.996094 253.636719 766.914062 C 261.953125 778.535156 264.25 807.4375 266.183594 816.714844 C 269.105469 830.460938 272.863281 844.050781 275.734375 857.847656 C 277.300781 865.261719 278.886719 872.640625 280.589844 879.980469 " fill-opacity="1" fill-rule="nonzero"/><g fill="#6d9994" fill-opacity="1"><g transform="translate(207.639364, 1104.035618)"><g><path d="M 5.328125 0 L 5.328125 -56.171875 L 19.28125 -56.171875 L 33.765625 -22.03125 L 48.25 -56.171875 L 62.125 -56.171875 L 62.125 0 L 48.859375 0 L 48.859375 -30.875 L 37.125 -2.4375 L 30.40625 -2.4375 L 18.59375 -30.875 L 18.59375 0 Z M 5.328125 0 "/></g></g></g><g fill="#6d9994" fill-opacity="1"><g transform="translate(278.969644, 1104.035618)"><g><path d="M 13.265625 0 L 4.953125 -8.453125 L 4.953125 -56.171875 L 19.203125 -56.171875 L 19.203125 -13.484375 L 21.875 -10.828125 L 37.34375 -10.828125 L 40.015625 -13.484375 L 40.015625 -56.171875 L 54.265625 -56.171875 L 54.265625 -8.453125 L 45.8125 0 Z M 13.265625 0 "/></g></g></g><g fill="#6d9994" fill-opacity="1"><g transform="translate(342.069563, 1104.035618)"><g><path d="M 5.640625 0 L 5.640625 -11.4375 L 34.90625 -11.4375 L 37.578125 -14.09375 L 37.578125 -20.34375 L 34.90625 -23.015625 L 11.890625 -23.015625 L 3.4375 -31.546875 L 3.4375 -47.71875 L 11.890625 -56.171875 L 48.625 -56.171875 L 48.625 -44.734375 L 20.125 -44.734375 L 17.453125 -42.078125 L 17.453125 -37.125 L 20.125 -34.453125 L 43.140625 -34.453125 L 51.59375 -25.984375 L 51.59375 -8.453125 L 43.140625 0 Z M 5.640625 0 "/></g></g></g><g fill="#6d9994" fill-opacity="1"><g transform="translate(400.978077, 1104.035618)"><g><path d="M 3.046875 0 L 3.046875 -10.75 L 9.296875 -10.75 L 9.140625 -45.421875 L 3.046875 -45.421875 L 3.046875 -56.171875 L 28.96875 -56.171875 L 28.96875 -45.421875 L 22.796875 -45.421875 L 22.640625 -10.75 L 28.96875 -10.75 L 28.96875 0 Z M 3.046875 0 "/></g></g></g><g fill="#6d9994" fill-opacity="1"><g transform="translate(436.872056, 1104.035618)"><g><path d="M 12.265625 0 L 3.8125 -8.453125 L 3.8125 -47.71875 L 12.265625 -56.171875 L 41.15625 -56.171875 L 49.6875 -47.71875 L 49.6875 -36.359375 L 35.828125 -36.359375 L 35.828125 -42.6875 L 33.078125 -45.34375 L 20.8125 -45.34375 L 18.0625 -42.6875 L 18.0625 -13.484375 L 20.8125 -10.828125 L 33.53125 -10.828125 L 36.359375 -13.484375 L 36.359375 -19.890625 L 50.15625 -19.890625 L 50.15625 -8.453125 L 41.6875 0 Z M 12.265625 0 "/></g></g></g><g fill="#6d9994" fill-opacity="1"><g transform="translate(491.817814, 1104.035618)"><g/></g></g><g fill="#6d9994" fill-opacity="1"><g transform="translate(514.451754, 1104.035618)"><g><path d="M 5.328125 0 L 5.328125 -56.171875 L 19.59375 -56.171875 L 19.59375 -35.296875 L 38.71875 -35.296875 L 38.71875 -56.171875 L 52.96875 -56.171875 L 52.96875 0 L 38.71875 0 L 38.71875 -24.15625 L 19.59375 -24.15625 L 19.59375 0 Z M 5.328125 0 "/></g></g></g><g fill="#6d9994" fill-opacity="1"><g transform="translate(576.637181, 1104.035618)"><g><path d="M 5.328125 0 L 5.328125 -56.171875 L 48.015625 -56.171875 L 48.015625 -44.59375 L 19.59375 -44.59375 L 19.59375 -34.21875 L 45.203125 -34.21875 L 45.203125 -23.46875 L 19.59375 -23.46875 L 19.59375 -11.578125 L 48.015625 -11.578125 L 48.015625 0 Z M 5.328125 0 "/></g></g></g><g fill="#6d9994" fill-opacity="1"><g transform="translate(632.345001, 1104.035618)"><g><path d="M 0 0 L 16.46875 -56.171875 L 39.640625 -56.171875 L 56.09375 0 L 41 0 L 38.1875 -11.203125 L 17.90625 -11.203125 L 15.09375 0 Z M 20.734375 -22.171875 L 35.359375 -22.171875 L 29.421875 -45.421875 L 26.671875 -45.421875 Z M 20.734375 -22.171875 "/></g></g></g><g fill="#6d9994" fill-opacity="1"><g transform="translate(692.320414, 1104.035618)"><g><path d="M 5.328125 0 L 5.328125 -56.171875 L 19.59375 -56.171875 L 19.59375 -11.578125 L 45.34375 -11.578125 L 45.34375 0 Z M 5.328125 0 "/></g></g></g><g fill="#6d9994" fill-opacity="1"><g transform="translate(742.693731, 1104.035618)"><g><path d="M 5.640625 0 L 5.640625 -11.4375 L 34.90625 -11.4375 L 37.578125 -14.09375 L 37.578125 -20.34375 L 34.90625 -23.015625 L 11.890625 -23.015625 L 3.4375 -31.546875 L 3.4375 -47.71875 L 11.890625 -56.171875 L 48.625 -56.171875 L 48.625 -44.734375 L 20.125 -44.734375 L 17.453125 -42.078125 L 17.453125 -37.125 L 20.125 -34.453125 L 43.140625 -34.453125 L 51.59375 -25.984375 L 51.59375 -8.453125 L 43.140625 0 Z M 5.640625 0 "/></g></g></g></svg>