<svg xmlns="http://www.w3.org/2000/svg" xmlns:xlink="http://www.w3.org/1999/xlink" width="1080" zoomAndPan="magnify" viewBox="0 0 810 809.999993" height="1080" preserveAspectRatio="xMidYMid meet" version="1.0"><defs><g/><clipPath id="6b3da8300b"><path d="M 61 260 L 351.675781 260 L 351.675781 543 L 61 543 Z M 61 260 " clip-rule="nonzero"/></clipPath></defs><g fill="#000000" fill-opacity="1"><g transform="translate(378.506878, 399.75)"><g><path d="M 5.953125 0 L 5.953125 -62.703125 L 21.53125 -62.703125 L 37.6875 -24.59375 L 53.859375 -62.703125 L 69.34375 -62.703125 L 69.34375 0 L 54.53125 0 L 54.53125 -34.453125 L 41.4375 -2.71875 L 33.953125 -2.71875 L 20.765625 -34.453125 L 20.765625 0 Z M 5.953125 0 "/></g></g></g><g fill="#000000" fill-opacity="1"><g transform="translate(463.074838, 399.75)"><g><path d="M 14.796875 0 L 5.53125 -9.4375 L 5.53125 -62.703125 L 21.4375 -62.703125 L 21.4375 -15.0625 L 24.421875 -12.078125 L 41.6875 -12.078125 L 44.671875 -15.0625 L 44.671875 -62.703125 L 60.578125 -62.703125 L 60.578125 -9.4375 L 51.125 0 Z M 14.796875 0 "/></g></g></g><g fill="#000000" fill-opacity="1"><g transform="translate(538.454372, 399.75)"><g><path d="M 6.296875 0 L 6.296875 -12.765625 L 38.96875 -12.765625 L 41.9375 -15.734375 L 41.9375 -22.71875 L 38.96875 -25.6875 L 13.265625 -25.6875 L 3.828125 -35.21875 L 3.828125 -53.265625 L 13.265625 -62.703125 L 54.28125 -62.703125 L 54.28125 -49.9375 L 22.453125 -49.9375 L 19.484375 -46.96875 L 19.484375 -41.4375 L 22.453125 -38.453125 L 48.15625 -38.453125 L 57.59375 -29.015625 L 57.59375 -9.4375 L 48.15625 0 Z M 6.296875 0 "/></g></g></g><g fill="#000000" fill-opacity="1"><g transform="translate(609.154617, 399.75)"><g><path d="M 3.40625 0 L 3.40625 -12 L 10.375 -12 L 10.203125 -50.703125 L 3.40625 -50.703125 L 3.40625 -62.703125 L 32.328125 -62.703125 L 32.328125 -50.703125 L 25.4375 -50.703125 L 25.265625 -12 L 32.328125 -12 L 32.328125 0 Z M 3.40625 0 "/></g></g></g><g fill="#000000" fill-opacity="1"><g transform="translate(654.161275, 399.75)"><g><path d="M 13.703125 0 L 4.25 -9.4375 L 4.25 -53.265625 L 13.703125 -62.703125 L 45.9375 -62.703125 L 55.46875 -53.265625 L 55.46875 -40.578125 L 39.984375 -40.578125 L 39.984375 -47.640625 L 36.921875 -50.625 L 23.21875 -50.625 L 20.15625 -47.640625 L 20.15625 -15.0625 L 23.21875 -12.078125 L 37.4375 -12.078125 L 40.578125 -15.0625 L 40.578125 -22.203125 L 55.984375 -22.203125 L 55.984375 -9.4375 L 46.53125 0 Z M 13.703125 0 "/></g></g></g><g fill="#000000" fill-opacity="1"><g transform="translate(376.842816, 477.749996)"><g><path d="M 5.953125 0 L 5.953125 -62.703125 L 21.859375 -62.703125 L 21.859375 -39.390625 L 43.21875 -39.390625 L 43.21875 -62.703125 L 59.125 -62.703125 L 59.125 0 L 43.21875 0 L 43.21875 -26.96875 L 21.859375 -26.96875 L 21.859375 0 Z M 5.953125 0 "/></g></g></g><g fill="#000000" fill-opacity="1"><g transform="translate(451.20141, 477.749996)"><g><path d="M 5.953125 0 L 5.953125 -62.703125 L 53.59375 -62.703125 L 53.59375 -49.765625 L 21.859375 -49.765625 L 21.859375 -38.203125 L 50.453125 -38.203125 L 50.453125 -26.203125 L 21.859375 -26.203125 L 21.859375 -12.9375 L 53.59375 -12.9375 L 53.59375 0 Z M 5.953125 0 "/></g></g></g><g fill="#000000" fill-opacity="1"><g transform="translate(518.32837, 477.749996)"><g><path d="M 0 0 L 18.375 -62.703125 L 44.234375 -62.703125 L 62.625 0 L 45.765625 0 L 42.625 -12.5 L 20 -12.5 L 16.84375 0 Z M 23.140625 -24.75 L 39.46875 -24.75 L 32.84375 -50.703125 L 29.78125 -50.703125 Z M 23.140625 -24.75 "/></g></g></g><g fill="#000000" fill-opacity="1"><g transform="translate(590.219705, 477.749996)"><g><path d="M 5.953125 0 L 5.953125 -62.703125 L 21.859375 -62.703125 L 21.859375 -12.9375 L 50.625 -12.9375 L 50.625 0 Z M 5.953125 0 "/></g></g></g><g fill="#000000" fill-opacity="1"><g transform="translate(651.391211, 477.749996)"><g><path d="M 6.296875 0 L 6.296875 -12.765625 L 38.96875 -12.765625 L 41.9375 -15.734375 L 41.9375 -22.71875 L 38.96875 -25.6875 L 13.265625 -25.6875 L 3.828125 -35.21875 L 3.828125 -53.265625 L 13.265625 -62.703125 L 54.28125 -62.703125 L 54.28125 -49.9375 L 22.453125 -49.9375 L 19.484375 -46.96875 L 19.484375 -41.4375 L 22.453125 -38.453125 L 48.15625 -38.453125 L 57.59375 -29.015625 L 57.59375 -9.4375 L 48.15625 0 Z M 6.296875 0 "/></g></g></g><g clip-path="url(#6b3da8300b)"><path fill="#242125" d="M 351.515625 400.8125 C 351.515625 460.664062 314.953125 512.523438 258.773438 533.238281 C 201.957031 554.183594 132.289062 540.933594 93.578125 494.445312 C 54.828125 447.902344 51.890625 378.71875 83.011719 326.722656 C 114.007812 274.933594 169.875 255.777344 230.015625 261.03125 C 298.902344 267.050781 351.515625 332.640625 351.515625 400.8125 " fill-opacity="1" fill-rule="nonzero"/></g><path fill="#f9d8c1" d="M 214.097656 420.289062 C 206.007812 423.273438 196.089844 421.386719 190.578125 414.765625 C 185.0625 408.140625 184.644531 398.289062 189.074219 390.886719 C 193.488281 383.515625 201.441406 380.785156 210.003906 381.535156 C 219.8125 382.394531 227.300781 391.730469 227.300781 401.4375 C 227.300781 409.957031 222.09375 417.339844 214.097656 420.289062 Z M 213.78125 358.789062 C 195.484375 357.191406 178.484375 363.019531 169.054688 378.777344 C 159.582031 394.59375 160.476562 415.644531 172.269531 429.804688 C 184.046875 443.953125 205.246094 447.984375 222.53125 441.609375 C 239.625 435.308594 250.75 419.53125 250.75 401.320312 C 250.75 380.574219 234.742188 360.621094 213.78125 358.789062 " fill-opacity="1" fill-rule="nonzero"/><path fill="#a6a6a6" d="M 212.125 415.304688 C 217.996094 413.140625 221.820312 407.71875 221.820312 401.464844 C 221.820312 394.339844 216.320312 387.484375 209.121094 386.855469 C 202.835938 386.304688 196.996094 388.304688 193.753906 393.71875 C 190.503906 399.15625 190.8125 406.386719 194.863281 411.25 C 198.90625 416.109375 206.1875 417.492188 212.125 415.304688 Z M 204.90625 464.148438 C 201.179688 463.933594 197.652344 463.164062 194 462.476562 C 191.617188 462.023438 189.683594 460.519531 189.609375 464.128906 C 215.941406 472.46875 245.257812 462.039062 260.5 439.0625 C 257.914062 436.195312 256.882812 439.519531 255.199219 441.65625 C 252.875 444.605469 250.257812 447.332031 247.417969 449.785156 C 241.789062 454.648438 235.308594 458.40625 228.292969 460.875 C 220.824219 463.5 212.808594 464.605469 204.90625 464.148438 Z M 172.753906 356.800781 C 178.21875 352.722656 184.394531 349.578125 190.910156 347.570312 C 194.269531 346.535156 197.6875 346.195312 201.074219 345.402344 C 203.460938 344.84375 205.40625 345.480469 204.394531 342.292969 C 180.019531 343.875 158.296875 360.101562 149.847656 383.019531 C 152.96875 385.210938 153.113281 382.097656 154.242188 379.648438 C 155.691406 376.503906 157.425781 373.492188 159.398438 370.644531 C 163.066406 365.351562 167.589844 360.652344 172.753906 356.800781 Z M 246.121094 462.792969 C 241.976562 465.382812 237.554688 467.570312 232.964844 469.253906 C 230.050781 470.320312 223.066406 470.335938 225.167969 474.472656 C 257.066406 467.054688 280.628906 438.71875 282.277344 406.085938 C 278.054688 404.640625 279.261719 409.847656 278.867188 412.601562 C 278.296875 416.582031 277.390625 420.507812 276.164062 424.335938 C 273.734375 431.902344 270.035156 439.007812 265.242188 445.34375 C 260.003906 452.261719 253.472656 458.191406 246.121094 462.792969 Z M 142.652344 375.0625 C 145.667969 367.8125 149.890625 361.0625 155.097656 355.183594 C 157.742188 352.191406 160.644531 349.4375 163.753906 346.9375 C 165.980469 345.144531 169.597656 344.003906 166.609375 341.351562 C 142.734375 357.6875 130.386719 387.378906 135.621094 415.828125 C 140.046875 416.265625 137.703125 411.535156 137.453125 408.769531 C 137.132812 405.160156 137.085938 401.523438 137.316406 397.910156 C 137.820312 390.070312 139.632812 382.316406 142.652344 375.0625 Z M 257.132812 471.890625 C 248.902344 477.574219 239.648438 481.710938 229.957031 484.160156 C 224.496094 485.539062 218.929688 486.367188 213.304688 486.617188 C 210.140625 486.757812 202.285156 484.210938 203.269531 489.246094 C 241.273438 492.070312 277.292969 468.765625 290.449219 433.082031 C 286.574219 430.222656 285.429688 438.128906 284.085938 440.8125 C 282 444.976562 279.570312 448.96875 276.824219 452.726562 C 271.390625 460.15625 264.707031 466.664062 257.132812 471.890625 Z M 166.136719 332.292969 C 169.890625 329.996094 173.808594 328.003906 177.875 326.324219 C 180.59375 325.207031 187.003906 325.039062 184.398438 321.035156 C 152.207031 330.902344 128.1875 359.605469 124.132812 393.027344 C 128.5 394.886719 127.757812 387.492188 128.429688 384.589844 C 129.417969 380.316406 130.75 376.117188 132.402344 372.050781 C 135.660156 364.03125 140.179688 356.527344 145.734375 349.886719 C 151.527344 342.96875 158.441406 337.007812 166.136719 332.292969 Z M 121.621094 343.816406 C 132.332031 327.867188 147.335938 314.953125 164.742188 306.808594 C 174.925781 302.042969 185.902344 298.863281 197.0625 297.496094 C 203.21875 296.742188 209.429688 296.523438 215.621094 296.859375 C 218.929688 297.039062 227.253906 300.175781 226.695312 295.238281 C 187.59375 289.148438 147.320312 305.359375 123.296875 336.730469 C 101.976562 364.582031 95.175781 401.738281 105.460938 435.292969 C 107.5 441.941406 110.167969 448.410156 113.425781 454.558594 C 118.324219 453.4375 111.722656 444.585938 110.492188 441.363281 C 108.597656 436.40625 107.0625 431.320312 105.917969 426.136719 C 103.816406 416.597656 103.03125 406.773438 103.613281 397.023438 C 104.746094 378.082031 111.046875 359.5625 121.621094 343.816406 Z M 286.523438 481.21875 C 315.289062 452.875 326.28125 409.855469 314.441406 371.230469 C 309.574219 371.328125 313.800781 379.363281 314.421875 382.472656 C 315.382812 387.289062 316.015625 392.179688 316.300781 397.082031 C 316.894531 407.339844 315.980469 417.675781 313.609375 427.671875 C 309.003906 447.082031 298.90625 465.058594 284.726562 479.089844 C 269.554688 494.097656 249.941406 504.25 228.949219 508.074219 C 216.730469 510.300781 204.136719 510.371094 191.894531 508.257812 C 186.175781 507.273438 180.53125 505.8125 175.046875 503.902344 C 171.871094 502.796875 163.121094 496.703125 162.226562 501.578125 C 203.320312 521.539062 253.992188 513.28125 286.523438 481.21875 Z M 330.015625 415.222656 C 329.511719 420.28125 328.695312 425.3125 327.558594 430.265625 C 325.488281 439.308594 322.367188 448.109375 318.277344 456.433594 C 310.171875 472.949219 298.253906 487.53125 283.683594 498.761719 C 268.113281 510.769531 249.632812 518.832031 230.261719 522.179688 C 218.976562 524.128906 207.433594 524.453125 196.0625 523.121094 C 190.570312 522.480469 185.125 521.457031 179.773438 520.066406 C 176.84375 519.308594 169.316406 514.976562 168.988281 519.664062 C 246.855469 547.136719 331.207031 488.722656 333.335938 406.472656 C 328.847656 405.070312 330.3125 412.203125 330.015625 415.222656 Z M 91.816406 427.6875 C 92.449219 430.726562 96.726562 439.265625 91.972656 439.425781 C 79.9375 400.15625 88.566406 356.636719 114.632812 324.925781 C 140.652344 293.285156 181.753906 276.273438 222.550781 280.480469 C 223.464844 285.425781 214.015625 282.632812 210.941406 282.605469 C 205.289062 282.5625 199.640625 282.921875 194.039062 283.667969 C 183.003906 285.136719 172.148438 288.175781 161.9375 292.605469 C 144.449219 300.195312 128.867188 311.972656 116.761719 326.699219 C 104.644531 341.441406 96.105469 359.035156 92.050781 377.683594 C 89.667969 388.632812 88.8125 399.921875 89.546875 411.105469 C 89.914062 416.679688 90.683594 422.21875 91.816406 427.6875 " fill-opacity="1" fill-rule="nonzero"/><path fill="#f9efe3" d="M 75.183594 407.730469 C 75.296875 408.050781 75.535156 408.363281 76.027344 408.433594 L 76.851562 407.867188 C 76.863281 407.8125 76.894531 407.753906 76.949219 407.65625 C 77.023438 407.515625 77.117188 407.355469 77.175781 407.132812 C 77.8125 407.554688 78.679688 407.457031 79.25 406.878906 C 79.628906 406.496094 79.835938 405.949219 79.820312 405.390625 L 79.191406 404.671875 C 77.703125 404.449219 77.1875 405.292969 76.878906 405.867188 L 76.746094 405.703125 C 75.910156 405.347656 74.523438 405.867188 74.449219 406.773438 C 74.417969 407.15625 74.640625 407.574219 75.183594 407.730469 Z M 111.0625 463.085938 C 111.15625 463.09375 111.246094 463.101562 111.332031 463.101562 C 111.933594 463.101562 112.289062 462.847656 112.480469 462.632812 C 112.820312 462.253906 112.945312 461.707031 112.867188 460.957031 L 112.171875 460.296875 C 112.050781 460.289062 111.9375 460.285156 111.832031 460.285156 C 111.394531 460.285156 110.769531 460.34375 110.417969 460.847656 C 110.015625 461.421875 110.273438 462.132812 110.441406 462.601562 Z M 114.085938 427.75 L 114.160156 427.75 C 114.332031 427.722656 114.734375 427.691406 114.996094 427.335938 C 115.105469 427.179688 115.230469 426.910156 115.148438 426.523438 L 114.429688 425.9375 C 114.582031 425.9375 114.71875 426.046875 114.730469 426.050781 C 114.652344 425.867188 114.460938 425.425781 113.933594 425.296875 L 112.992188 425.984375 C 112.867188 426.164062 112.597656 426.527344 112.707031 427.132812 L 113.4375 427.75 Z M 108.53125 488.613281 L 109.273438 487.914062 C 109.304688 487.363281 109.105469 487.03125 108.929688 486.847656 C 108.601562 486.503906 108.136719 486.359375 107.425781 486.480469 L 106.800781 487.210938 L 106.800781 487.867188 L 107.542969 488.613281 Z M 107.34375 464.382812 L 107.957031 463.570312 C 107.945312 463.488281 107.949219 463.476562 108.03125 463.328125 C 108.144531 463.113281 108.316406 462.792969 108.285156 462.292969 L 107.632812 461.609375 L 107.40625 461.597656 C 106.980469 461.597656 106.695312 461.746094 106.503906 461.851562 C 106.375 461.921875 106.351562 461.933594 106.28125 461.933594 L 106.273438 461.933594 L 105.488281 462.675781 L 105.488281 463.320312 L 106.1875 464.089844 C 106.339844 464.203125 106.617188 464.40625 107.066406 464.40625 Z M 122.664062 298.261719 L 122.035156 297.332031 C 121.921875 297.238281 121.738281 297.085938 121.449219 297.023438 L 120.550781 297.652344 C 120.460938 297.757812 120.308594 297.933594 120.238281 298.210938 L 120.875 299.140625 C 120.980469 299.226562 121.160156 299.378906 121.4375 299.449219 L 122.359375 298.8125 C 122.445312 298.707031 122.59375 298.535156 122.664062 298.261719 Z M 122.40625 461.425781 L 123.355469 460.8125 C 123.597656 460.652344 124.242188 460.222656 123.96875 459.207031 L 123.535156 458.710938 C 122.574219 458.296875 121.613281 459.164062 121.5 460.023438 C 121.414062 460.695312 121.777344 461.261719 122.40625 461.425781 Z M 119.414062 322.613281 L 119.414062 321.632812 L 119.097656 321.316406 C 119.179688 321.054688 119.164062 320.757812 119.050781 320.414062 L 117.828125 320.0625 C 117.644531 319.882812 117.339844 319.578125 116.867188 319.578125 C 116.300781 319.578125 115.929688 320.027344 115.808594 320.179688 L 116.308594 321.390625 C 116.355469 321.394531 116.488281 321.410156 116.53125 321.421875 C 116.421875 321.382812 116.308594 321.214844 116.308594 321.140625 L 117.066406 321.886719 C 116.96875 322.089844 116.894531 322.367188 116.964844 322.746094 L 117.695312 323.359375 L 118.667969 323.359375 Z M 117.84375 345.335938 C 117.84375 345.070312 117.777344 344.824219 117.65625 344.621094 C 117.46875 344.308594 117.140625 344.117188 116.78125 344.117188 L 116.554688 344.144531 L 116.21875 344.546875 C 116.300781 344.5 116.402344 344.46875 116.527344 344.46875 L 115.640625 345.195312 L 115.640625 345.847656 L 115.980469 346.472656 C 116.207031 346.613281 116.441406 346.6875 116.675781 346.6875 C 117.339844 346.6875 117.84375 346.105469 117.84375 345.335938 Z M 115.316406 455.1875 C 115.875 455.1875 116.382812 454.675781 116.421875 454.078125 C 116.460938 453.566406 116.15625 452.914062 115.171875 452.777344 L 114.332031 453.414062 C 114.246094 454.089844 114.328125 454.546875 114.601562 454.855469 Z M 104.347656 322.4375 C 104.414062 322.121094 104.449219 321.726562 104.191406 321.410156 L 103.546875 321.101562 C 103.277344 321.101562 103.066406 321.214844 102.839844 321.367188 C 102.71875 321.453125 102.648438 321.558594 102.601562 321.667969 C 102.214844 321.765625 101.949219 322.085938 101.898438 322.53125 L 101.914062 322.53125 L 101.894531 322.550781 L 102.589844 322.621094 C 102.542969 322.773438 102.519531 322.890625 102.519531 322.921875 L 102.554688 323.007812 L 102.425781 323.3125 C 102.550781 323.363281 102.808594 323.523438 102.878906 323.566406 L 102.917969 323.550781 L 102.902344 323.578125 L 102.925781 323.546875 L 103.277344 323.691406 L 103.628906 323.605469 L 103.636719 323.25 L 103.980469 323.105469 C 104.007812 323.027344 104.132812 322.796875 104.179688 322.734375 L 103.976562 322.566406 C 104.003906 322.5 104.019531 322.4375 104.03125 322.371094 Z M 85.953125 401.675781 C 86.566406 401.675781 87.695312 401.269531 87.75 400.453125 C 87.757812 400.304688 87.753906 399.570312 86.703125 399.433594 L 86.300781 399.78125 C 85.546875 399.851562 85.070312 400.007812 84.894531 400.480469 L 85.09375 401.355469 C 85.242188 401.5 85.511719 401.675781 85.953125 401.675781 Z M 86.914062 380.144531 C 87.078125 379.804688 87.144531 379.234375 86.527344 378.445312 L 85.496094 378.308594 C 84.566406 379 84.609375 379.644531 84.71875 379.96875 C 84.875 380.445312 85.339844 380.757812 85.878906 380.757812 C 86.332031 380.757812 86.730469 380.527344 86.914062 380.144531 Z M 100.34375 366.691406 C 100.949219 366.691406 101.648438 366.296875 101.722656 365.660156 C 101.761719 365.3125 101.65625 364.695312 100.507812 364.429688 L 99.753906 364.707031 C 99.59375 364.910156 99.113281 365.542969 99.421875 366.15625 C 99.585938 366.496094 99.929688 366.691406 100.34375 366.691406 Z M 101.632812 386.507812 C 101.824219 386.535156 102.019531 386.550781 102.191406 386.550781 C 102.582031 386.550781 102.894531 386.4375 103.109375 386.207031 C 103.25 386.058594 103.40625 385.800781 103.378906 385.386719 L 102.734375 384.683594 C 102.574219 384.433594 102.09375 383.8125 101.128906 384.078125 L 100.585938 384.808594 C 100.59375 385.019531 100.53125 385.125 100.375 385.367188 L 101.261719 386.472656 C 101.371094 386.472656 101.503906 386.496094 101.632812 386.507812 Z M 96.632812 431.089844 C 96.832031 431.089844 97.046875 431.058594 97.285156 430.988281 L 97.816406 430.277344 L 97.816406 428.964844 L 97.074219 428.222656 L 96.089844 428.222656 L 95.351562 428.886719 C 95.28125 429.535156 95.246094 430.222656 95.671875 430.691406 C 95.835938 430.871094 96.136719 431.089844 96.632812 431.089844 Z M 243.539062 425.691406 C 243.3125 425.414062 242.78125 425.097656 241.871094 425.296875 L 241.3125 425.84375 C 241.164062 426.425781 241.230469 427.1875 242.53125 427.550781 C 242.53125 427.550781 242.496094 427.535156 242.453125 427.488281 L 243.742188 427.171875 C 243.890625 426.539062 243.824219 426.050781 243.539062 425.691406 Z M 238.707031 371.460938 L 238.710938 371.460938 L 238.804688 371.46875 C 239.121094 371.46875 239.40625 371.34375 239.601562 371.117188 C 239.960938 370.710938 239.890625 370.160156 239.835938 369.714844 C 239.816406 369.574219 239.792969 369.371094 239.789062 369.34375 L 239.09375 368.335938 L 238.105469 368.335938 L 237.601562 368.535156 C 237.121094 368.980469 237.078125 369.875 237.3125 370.480469 C 237.550781 371.097656 238.074219 371.460938 238.707031 371.460938 Z M 243.703125 420.828125 C 243.511719 420.617188 243.148438 420.363281 242.523438 420.363281 L 242.300781 420.375 L 241.621094 421.117188 L 241.621094 422.089844 L 242.367188 422.835938 L 243.34375 422.835938 L 244.085938 422.15625 C 244.132812 421.59375 244.007812 421.152344 243.703125 420.828125 Z M 234.027344 374.707031 C 233.691406 374.242188 233.144531 373.949219 232.589844 373.949219 C 231.863281 373.949219 231.308594 374.421875 231.164062 375.160156 L 231.460938 375.902344 C 231.542969 375.960938 231.628906 376.066406 231.730469 376.183594 C 232.03125 376.519531 232.484375 377.03125 233.386719 377.03125 L 233.589844 377.023438 L 234.230469 376.53125 C 234.460938 375.867188 234.390625 375.230469 234.027344 374.707031 Z M 249.46875 331.003906 L 248.863281 331.195312 C 248.375 331.648438 248.199219 332.347656 248.429688 332.929688 C 248.644531 333.480469 249.164062 333.808594 249.8125 333.808594 C 249.90625 333.808594 250.015625 333.804688 250.121094 333.785156 L 250.753906 333.140625 C 250.972656 331.355469 249.828125 331.054688 249.46875 331.003906 Z M 213.675781 386.152344 L 214.628906 385.339844 C 214.523438 384.566406 214.265625 383.96875 214.015625 383.394531 L 213.925781 383.183594 L 213.242188 382.738281 L 212.253906 382.738281 L 211.519531 383.585938 C 211.707031 384.898438 212.453125 385.789062 213.675781 386.152344 Z M 216.546875 445.574219 C 216.953125 445.574219 217.328125 445.324219 217.519531 444.914062 C 217.800781 444.320312 217.636719 443.566406 217.085938 442.894531 L 215.820312 443.089844 C 215.460938 443.996094 215.433594 444.691406 215.742188 445.144531 C 215.929688 445.417969 216.21875 445.574219 216.546875 445.574219 Z M 215.132812 325.03125 C 216.054688 325.03125 216.277344 324.203125 216.347656 323.832031 L 215.859375 322.527344 L 214.878906 322.527344 L 214.136719 323.269531 L 214.136719 324.25 L 214.691406 324.96875 C 214.851562 325.011719 214.992188 325.03125 215.132812 325.03125 Z M 231.894531 425.15625 C 233.121094 425.15625 233.585938 424.273438 233.863281 423.753906 L 233.117188 422.660156 C 232.445312 422.695312 231.679688 422.730469 231.195312 423.277344 C 230.925781 423.574219 230.800781 423.964844 230.824219 424.425781 L 231.457031 425.125 C 231.617188 425.148438 231.761719 425.15625 231.894531 425.15625 Z M 230.460938 309.792969 C 230.300781 309.398438 229.925781 309.171875 229.351562 309.109375 L 228.710938 309.363281 C 228.378906 309.75 227.546875 311.3125 227.773438 312.175781 C 227.859375 312.492188 228.074219 312.734375 228.363281 312.839844 L 229.355469 312.171875 C 229.394531 312.042969 229.664062 311.714844 229.824219 311.519531 C 230.25 311.011719 230.722656 310.433594 230.460938 309.792969 Z M 255.488281 325.875 C 255.496094 326.09375 255.433594 326.191406 255.28125 326.421875 L 256.007812 327.566406 C 256.507812 327.496094 257.820312 327.308594 258.246094 326.089844 L 257.542969 325.105469 L 256.230469 325.105469 Z M 219.964844 346.574219 L 220.855469 345.816406 C 220.875 345.671875 221.078125 345.226562 221.175781 345.011719 C 221.429688 344.46875 221.609375 344.082031 221.351562 343.675781 L 220.695312 343.316406 C 220.394531 343.316406 220.164062 343.480469 219.972656 343.640625 L 219.050781 344.621094 C 219.058594 344.71875 219.054688 344.835938 219.050781 344.953125 C 219.046875 345.382812 219.03125 346.382812 219.964844 346.574219 Z M 283.660156 401.019531 L 282.902344 400.082031 C 282.707031 400.082031 282.59375 400.023438 282.367188 399.875 L 281.21875 400.503906 L 281.21875 401.152344 L 281.503906 401.746094 C 281.722656 401.90625 282.0625 402.140625 282.476562 402.140625 C 282.808594 402.140625 283.40625 401.988281 283.660156 401.019531 Z M 271.40625 276.6875 L 270.445312 276.933594 C 270.050781 278.402344 271.042969 278.878906 271.46875 279.082031 C 271.566406 279.128906 271.71875 279.199219 271.75 279.257812 L 271.796875 279.46875 C 271.949219 280.167969 272.238281 281.472656 273.710938 281.472656 L 274.527344 280.792969 C 274.53125 280.710938 274.542969 280.652344 274.546875 280.617188 L 275.171875 280.179688 C 275.246094 279.660156 275.078125 279.3125 274.871094 279.070312 C 275.015625 278.917969 275.160156 278.769531 275.304688 278.617188 L 275.117188 278.09375 C 273.902344 277.449219 272.679688 276.824219 271.441406 276.21875 L 271.414062 276.253906 C 271.445312 276.46875 271.425781 276.613281 271.40625 276.6875 Z M 282.832031 471.921875 L 283.664062 471.351562 C 283.683594 471.300781 283.71875 471.230469 283.765625 471.144531 C 283.917969 470.859375 284.148438 470.433594 284.003906 469.71875 L 283.273438 469.128906 L 282.289062 469.128906 L 281.550781 469.785156 C 281.347656 471.503906 282.378906 471.851562 282.832031 471.921875 Z M 285.726562 391.734375 L 286.652344 391.105469 C 286.890625 390.949219 287.535156 390.519531 287.261719 389.503906 L 286.632812 388.957031 C 285.375 388.777344 284.625 389.308594 284.5 390.253906 L 285.226562 391.09375 C 285.070312 391.09375 284.929688 390.976562 284.917969 390.96875 C 285 391.164062 285.183594 391.617188 285.726562 391.734375 Z M 289.03125 495.976562 L 288.535156 496.304688 C 288.28125 496.707031 288.25 497.148438 288.453125 497.519531 C 288.671875 497.917969 289.136719 498.167969 289.675781 498.167969 C 290.082031 498.167969 290.445312 498.011719 290.664062 497.738281 C 290.863281 497.5 290.929688 497.191406 290.867188 496.878906 L 290.179688 496.265625 C 290.03125 496.152344 289.75 495.949219 289.308594 495.949219 Z M 288.941406 300.097656 C 288.851562 300.105469 288.761719 300.113281 288.71875 300.183594 L 287.441406 300.574219 C 287.355469 301.105469 287.457031 301.546875 287.738281 301.875 C 288.15625 302.363281 288.804688 302.429688 289.382812 302.429688 L 290.148438 302.414062 L 290.882812 301.628906 C 290.816406 300.492188 290.023438 300.003906 288.941406 300.097656 Z M 274.554688 517.785156 C 274.089844 518.253906 273.929688 518.890625 274.136719 519.390625 C 274.320312 519.832031 274.765625 520.089844 275.320312 520.089844 C 275.5 520.089844 275.703125 520.066406 275.925781 520.007812 L 276.484375 519.3125 C 276.511719 518.480469 276.101562 517.878906 275.335938 517.597656 Z M 273.679688 307.402344 L 273.863281 306.957031 C 273.988281 305.125 272.507812 304.699219 272.019531 304.558594 L 271.316406 304.722656 C 270.832031 305.160156 270.695312 305.8125 270.945312 306.46875 C 271.199219 307.132812 271.90625 307.835938 272.71875 307.835938 C 273.09375 307.835938 273.433594 307.679688 273.679688 307.402344 Z M 262.539062 372.441406 L 262.960938 372.089844 C 262.910156 372.097656 262.863281 372.105469 262.808594 372.097656 L 263.726562 371.304688 C 263.613281 370.1875 263.003906 369.957031 262.519531 369.957031 C 262.40625 369.957031 262.285156 369.96875 262.164062 369.992188 L 261.585938 370.828125 C 261.601562 370.902344 261.601562 370.976562 261.601562 371.058594 C 261.617188 371.398438 261.652344 372.300781 262.539062 372.441406 Z M 268.617188 493.59375 L 268.027344 492.699219 C 268.246094 492.738281 268.425781 492.984375 268.4375 493.046875 C 268.539062 492.195312 268.203125 491.648438 267.457031 491.414062 L 267.144531 491.597656 C 266.96875 491.507812 266.625 491.363281 266.164062 491.386719 L 265.515625 492.042969 C 265.386719 493.210938 265.964844 493.808594 266.347656 494.203125 C 266.449219 494.308594 266.550781 494.40625 266.632812 494.523438 L 267.753906 494.164062 L 267.976562 494.089844 C 267.976562 494.242188 267.863281 494.390625 267.851562 494.40625 C 268.042969 494.324219 268.492188 494.140625 268.617188 493.59375 Z M 269.589844 385.996094 C 269.765625 386.613281 270.15625 387.167969 271.082031 387.167969 L 271.898438 386.363281 C 271.871094 385.613281 271.804688 384.050781 270.148438 384.050781 C 270.148438 384.050781 270.144531 384.050781 270.140625 384.050781 L 269.445312 384.859375 C 269.445312 384.890625 269.445312 384.925781 269.445312 384.976562 C 269.433594 384.949219 269.414062 384.933594 269.394531 384.917969 C 269.203125 384.71875 268.941406 384.613281 268.664062 384.613281 C 268.074219 384.613281 267.53125 385.089844 267.363281 385.238281 C 267.207031 385.402344 266.71875 385.890625 266.960938 386.472656 L 267.8125 387.007812 C 268.277344 387.007812 269.285156 386.660156 269.589844 385.996094 Z M 250.4375 513.476562 C 250.644531 513.503906 250.828125 513.515625 251.003906 513.515625 C 251.738281 513.515625 252.710938 513.261719 253.199219 512.03125 L 252.605469 511.019531 C 252.566406 511.015625 252.535156 511.007812 252.507812 511.007812 C 252.511719 510.71875 252.464844 510.257812 252 509.875 L 250.894531 510.0625 C 250.800781 510.210938 250.714844 510.328125 250.648438 510.414062 C 250.339844 510.835938 250.222656 511.132812 250.289062 511.582031 C 250.183594 511.652344 250.078125 511.738281 249.992188 511.863281 C 249.789062 512.140625 249.730469 512.488281 249.820312 512.894531 Z M 263.765625 410.082031 C 264.195312 410.082031 264.480469 409.933594 264.671875 409.828125 C 264.804688 409.753906 264.808594 409.710938 264.894531 409.746094 L 265.6875 409.089844 C 265.75 408.550781 265.628906 408.105469 265.335938 407.773438 C 264.964844 407.355469 264.378906 407.195312 263.554688 407.285156 L 262.890625 408.027344 L 262.890625 409.335938 L 263.550781 410.074219 Z M 205.859375 388.425781 C 206.011719 388.214844 206.304688 387.824219 206.121094 387.34375 C 205.929688 386.835938 205.394531 386.722656 205.21875 386.679688 L 204.394531 387.082031 C 204.351562 387.164062 204.265625 387.273438 204.183594 387.378906 C 203.964844 387.660156 203.628906 388.089844 203.808594 388.632812 C 204.003906 389.207031 204.632812 389.375 204.867188 389.433594 L 205.722656 388.375 C 205.761719 388.457031 205.757812 388.558594 205.738281 388.597656 C 205.753906 388.5625 205.816406 388.480469 205.859375 388.425781 Z M 155.191406 318.285156 L 154.578125 319.019531 L 154.578125 319.667969 L 155.324219 320.414062 L 156.300781 320.414062 L 157.039062 319.726562 C 157.082031 319.175781 156.886719 318.835938 156.714844 318.652344 C 156.496094 318.417969 156.054688 318.136719 155.191406 318.285156 Z M 152.214844 367.703125 L 151.628906 368.421875 L 151.628906 369.078125 L 152.285156 369.816406 C 152.390625 369.910156 152.570312 370.0625 152.851562 370.132812 L 153.765625 369.203125 C 153.753906 368.820312 153.710938 367.660156 152.570312 367.660156 C 152.457031 367.660156 152.339844 367.675781 152.214844 367.703125 Z M 157.527344 302.226562 L 158.175781 303.066406 C 158.324219 303.085938 158.46875 303.09375 158.601562 303.09375 C 159.554688 303.09375 160.195312 302.597656 160.3125 301.773438 L 159.664062 300.933594 C 158.457031 300.792969 157.660156 301.28125 157.527344 302.226562 Z M 161.242188 452.886719 C 161.410156 452.957031 161.585938 452.992188 161.765625 452.992188 C 162.507812 452.992188 163.21875 452.363281 163.277344 451.644531 C 163.324219 451.0625 162.929688 450.585938 162.3125 450.484375 L 161.441406 451.179688 C 161.449219 451.050781 161.542969 450.929688 161.53125 450.929688 C 160.894531 451.230469 160.652344 451.71875 160.816406 452.382812 Z M 164.109375 475.523438 L 164.855469 475.046875 C 165.082031 474.65625 165.5 473.925781 165.15625 473.285156 C 165.050781 473.09375 164.785156 472.761719 164.199219 472.730469 L 163.445312 473.222656 C 163.226562 473.613281 162.820312 474.332031 163.160156 474.957031 C 163.265625 475.15625 163.523438 475.480469 164.109375 475.523438 Z M 132.984375 476.980469 C 132.894531 477.082031 132.742188 477.265625 132.671875 477.550781 L 133.355469 478.488281 C 133.507812 478.601562 133.785156 478.808594 134.234375 478.808594 L 134.5 478.785156 L 135.121094 478.078125 C 135.140625 477.496094 134.953125 476.730469 133.980469 476.371094 Z M 127.679688 485.324219 L 128.003906 485.359375 C 128.765625 485.359375 129.707031 484.824219 129.890625 484.023438 C 129.996094 483.582031 129.851562 482.980469 129.144531 482.625 L 128.886719 482.769531 C 128.6875 482.511719 128.382812 482.199219 127.914062 482.199219 L 127.578125 482.261719 L 127.265625 482.480469 C 126.382812 483.515625 126.382812 484.027344 127.265625 485.074219 Z M 146.402344 285.554688 L 147.234375 286.375 C 147.304688 286.367188 147.375 286.367188 147.457031 286.367188 L 147.457031 285.71875 L 147.703125 286.367188 C 148.015625 286.367188 148.960938 286.367188 149.171875 285.484375 L 148.972656 284.785156 C 148.933594 284.746094 148.894531 284.710938 148.855469 284.679688 C 148.957031 284.503906 149.03125 284.253906 149.03125 283.894531 C 149.03125 283.519531 148.957031 283.121094 148.820312 282.804688 C 148.488281 282.003906 147.886719 281.917969 147.640625 281.917969 L 147.214844 281.992188 L 146.730469 282.796875 C 146.828125 283.484375 146.964844 284.027344 147.140625 284.421875 C 146.738281 284.628906 146.460938 285.03125 146.402344 285.554688 Z M 148.1875 530.589844 C 148.429688 529.613281 147.855469 529.183594 147.550781 528.964844 C 148.035156 528 148.660156 525.640625 148.023438 524.246094 C 147.746094 523.632812 147.242188 523.238281 146.605469 523.132812 L 146.191406 523.632812 C 145.71875 523.402344 144.816406 523.214844 143.09375 523.214844 C 142.3125 523.214844 141.457031 523.273438 141.210938 523.941406 L 141.320312 524.648438 C 141.546875 524.953125 141.574219 525.316406 141.597656 525.886719 C 141.613281 526.371094 141.640625 526.925781 141.882812 527.449219 C 142.074219 527.867188 142.449219 528.113281 142.78125 528.335938 C 142.9375 528.441406 143.195312 528.617188 143.199219 528.78125 L 143.640625 529.734375 C 143.753906 529.78125 143.863281 529.824219 143.976562 529.867188 C 144.460938 529.9375 144.839844 529.835938 145.097656 529.671875 C 145.230469 529.984375 145.410156 530.292969 145.664062 530.546875 C 146.203125 530.753906 146.746094 530.957031 147.289062 531.160156 C 147.363281 531.160156 147.441406 531.160156 147.527344 531.152344 Z M 140.015625 370.589844 C 139.75 370.921875 139.640625 371.320312 139.546875 371.671875 C 139.488281 371.886719 139.421875 372.128906 139.347656 372.21875 L 140.035156 373.417969 C 140.613281 373.324219 140.972656 373.488281 141.140625 373.609375 L 142.308594 373.09375 C 142.335938 372.90625 142.359375 372.882812 142.414062 372.847656 L 142.796875 372.144531 C 142.796875 371.910156 142.707031 371.722656 142.550781 371.558594 C 142.570312 371.152344 142.320312 370.816406 142.171875 370.605469 L 141.570312 370.304688 L 140.597656 370.304688 Z M 196.878906 326.628906 L 197.535156 326.628906 L 198.164062 326.28125 C 198.417969 325.878906 198.445312 325.441406 198.242188 325.074219 C 197.855469 324.367188 196.542969 324.234375 196.03125 324.847656 C 195.835938 325.089844 195.761719 325.390625 195.824219 325.703125 L 196.207031 326.027344 C 196.140625 325.898438 196.140625 325.78125 196.152344 325.730469 Z M 191.886719 449.585938 L 192.230469 450.214844 C 192.453125 450.363281 192.683594 450.429688 192.917969 450.429688 C 193.585938 450.429688 194.085938 449.84375 194.085938 449.070312 C 194.085938 448.804688 194.023438 448.554688 193.902344 448.351562 C 193.707031 448.03125 193.386719 447.851562 193.023438 447.851562 L 192.808594 447.871094 L 192.472656 448.269531 C 192.558594 448.230469 192.65625 448.199219 192.765625 448.199219 L 191.886719 448.929688 Z M 212.105469 270.019531 C 211.8125 270.269531 211.660156 270.585938 211.539062 270.84375 C 211.480469 270.957031 211.394531 271.144531 211.351562 271.179688 L 211.105469 271.160156 L 210.292969 272.234375 C 210.335938 272.308594 210.257812 272.488281 210.160156 272.691406 C 210.027344 272.964844 209.828125 273.382812 210.082031 273.8125 C 210.195312 274.003906 210.425781 274.238281 210.90625 274.269531 L 211.683594 273.390625 C 211.703125 273.496094 211.628906 273.664062 211.535156 273.71875 C 211.578125 273.695312 211.703125 273.652344 211.789062 273.628906 C 212.105469 273.527344 212.535156 273.390625 212.835938 273.015625 C 213.046875 272.75 213.066406 272.449219 213.03125 272.125 C 213.429688 271.96875 213.578125 271.621094 213.628906 271.453125 C 213.710938 271.1875 213.671875 270.890625 213.578125 270.640625 C 213.601562 270.667969 213.621094 270.691406 213.644531 270.71875 L 214.9375 270.464844 C 214.90625 270.558594 214.785156 270.652344 214.777344 270.664062 L 215.621094 269.960938 C 215.632812 269.765625 215.621094 269.589844 215.605469 269.433594 L 216.261719 268.820312 C 216.035156 267.523438 215.355469 267.34375 214.730469 267.277344 C 214.472656 267.25 214.269531 267.226562 214 267.035156 L 212.824219 267.660156 C 212.84375 268.4375 212.921875 269.375 213.292969 270.15625 C 213.101562 269.953125 212.792969 269.832031 212.492188 269.847656 Z M 208.085938 322.488281 L 207.355469 321.871094 L 206.367188 321.871094 L 205.625 322.613281 L 205.625 323.597656 L 206.367188 324.34375 L 207.027344 324.34375 L 207.796875 323.628906 C 207.925781 323.457031 208.191406 323.097656 208.085938 322.488281 Z M 206.5 342.652344 L 207.109375 341.957031 C 207.144531 341.113281 206.734375 340.503906 205.957031 340.238281 L 204.980469 340.839844 C 204.890625 340.949219 204.730469 341.136719 204.664062 341.433594 L 205.347656 342.363281 C 205.496094 342.472656 205.773438 342.675781 206.214844 342.675781 Z M 183.910156 368.8125 L 184.179688 368.84375 C 184.992188 368.765625 185.605469 367.597656 185.570312 366.878906 C 185.542969 366.183594 185.023438 365.710938 184.28125 365.710938 L 184.023438 365.726562 L 183.398438 366.589844 C 183.386719 366.640625 183.3125 366.78125 183.261719 366.867188 C 183.105469 367.179688 182.859375 367.644531 183.070312 368.144531 C 183.210938 368.472656 183.488281 368.691406 183.910156 368.8125 Z M 181.082031 349.121094 L 182.015625 349.851562 L 182.289062 349.871094 C 182.417969 349.878906 182.546875 349.890625 182.667969 349.890625 C 182.847656 349.890625 183.410156 349.890625 183.742188 349.421875 C 183.96875 349.113281 184.003906 348.714844 183.84375 348.234375 L 183.140625 347.722656 L 181.828125 347.722656 L 181.082031 348.464844 Z M 312.957031 325.3125 L 313.789062 324.480469 C 313.777344 324.375 313.789062 324.25 313.796875 324.121094 C 313.804688 324.035156 313.808594 323.953125 313.8125 323.863281 C 313.835938 323.898438 313.863281 323.933594 313.890625 323.964844 L 314.601562 324.289062 C 315.167969 324.289062 315.664062 323.792969 315.707031 323.183594 C 315.746094 322.671875 315.441406 322.023438 314.460938 321.882812 L 313.613281 322.519531 C 313.597656 322.652344 313.589844 322.777344 313.582031 322.894531 C 313.5625 322.859375 313.53125 322.824219 313.5 322.789062 C 313.296875 322.578125 312.824219 322.335938 312.15625 322.5625 L 311.652344 323.1875 C 311.460938 324.925781 312.5 325.253906 312.957031 325.3125 Z M 314.164062 315.238281 C 314.035156 315.03125 313.726562 314.6875 313.070312 314.671875 L 312.695312 314.765625 C 312.179688 315.046875 311.972656 315.550781 311.847656 315.984375 C 311.820312 315.984375 311.792969 315.984375 311.765625 315.980469 L 310.996094 316.679688 C 310.957031 317.417969 311.265625 317.867188 311.46875 318.160156 C 311.578125 318.320312 311.640625 318.414062 311.664062 318.527344 L 312.109375 319.050781 C 312.292969 319.125 312.496094 319.164062 312.710938 319.164062 C 313.460938 319.164062 314.34375 318.675781 314.402344 317.980469 C 314.425781 317.695312 314.3125 317.386719 314.023438 317.175781 C 314.304688 316.53125 314.519531 315.808594 314.164062 315.238281 Z M 320.167969 415.105469 C 320.03125 415.9375 320.167969 416.609375 320.574219 417.097656 C 321.167969 417.8125 322.160156 417.910156 322.851562 417.929688 L 323.375 417.726562 C 324.199219 416.957031 324.789062 416.121094 325.1875 415.1875 L 324.835938 414.230469 C 324.304688 413.972656 323.734375 413.996094 323.300781 414.195312 C 323.175781 414.042969 322.996094 413.925781 322.753906 413.859375 L 321.800781 414.472656 C 321.824219 414.324219 321.953125 414.195312 322.035156 414.171875 C 321.980469 414.195312 321.808594 414.195312 321.695312 414.195312 C 321.265625 414.207031 320.464844 414.222656 320.167969 415.105469 Z M 328.820312 406.261719 L 328.046875 405.324219 C 327.851562 405.324219 327.742188 405.253906 327.523438 405.113281 L 326.375 405.734375 L 326.375 406.390625 L 326.664062 406.980469 C 326.882812 407.144531 327.21875 407.371094 327.632812 407.371094 C 327.960938 407.371094 328.554688 407.226562 328.820312 406.261719 Z M 305.601562 394.648438 L 306.359375 394.492188 C 306.847656 394.03125 307 393.242188 306.734375 392.570312 C 306.492188 391.949219 305.949219 391.578125 305.15625 391.578125 C 305.152344 391.578125 305.148438 391.578125 305.140625 391.578125 L 304.679688 391.78125 C 304.261719 392.1875 304.089844 392.683594 304.199219 393.207031 C 304.363281 393.964844 305.054688 394.449219 305.601562 394.648438 Z M 298.867188 437.886719 C 299.003906 437.902344 299.132812 437.917969 299.25 437.917969 C 299.742188 437.917969 300.085938 437.757812 300.335938 437.644531 C 300.65625 437.503906 300.792969 437.480469 301.097656 437.546875 L 302.007812 436.800781 C 301.964844 435.335938 301.199219 435.152344 300.65625 435.238281 C 300.421875 434.347656 299.675781 434.15625 299.402344 434.121094 L 298.5625 434.785156 C 298.53125 435.109375 298.433594 435.296875 298.320312 435.519531 C 298.050781 436.03125 297.851562 436.5625 298.308594 437.480469 Z M 303.179688 423.824219 L 303.96875 422.972656 C 303.8125 421.847656 303.125 421.175781 302.125 421.175781 C 301.433594 421.175781 300.71875 421.5 300.242188 421.777344 L 299.898438 422.21875 C 299.660156 423.054688 299.976562 423.507812 300.207031 423.925781 L 300.933594 424.796875 L 300.949219 424.796875 C 301.75 424.796875 302.210938 424.394531 302.511719 424.125 C 302.769531 423.898438 302.898438 423.902344 303.179688 423.824219 Z M 294.246094 377.902344 C 294.703125 377.902344 295.109375 377.703125 295.332031 377.367188 C 295.535156 377.066406 295.558594 376.679688 295.410156 376.316406 C 295.207031 375.835938 294.640625 375.613281 294.171875 375.613281 C 293.609375 375.613281 293.167969 375.914062 293.023438 376.402344 C 292.917969 376.773438 292.980469 377.128906 293.195312 377.414062 C 293.425781 377.726562 293.8125 377.902344 294.246094 377.902344 Z M 294.65625 431.117188 L 294.855469 431.464844 C 295.199219 431.796875 295.6875 431.988281 296.195312 431.988281 C 296.703125 431.988281 297.191406 431.796875 297.53125 431.464844 L 297.753906 430.984375 C 297.839844 429.78125 297.011719 429.316406 296.414062 428.980469 L 296.039062 429.160156 C 296.027344 429.148438 296.023438 429.136719 296.015625 429.125 C 295.496094 428.289062 293.617188 428.289062 293.097656 429.125 C 292.886719 429.464844 292.875 429.886719 293.074219 430.277344 L 293.902344 430.675781 L 294.3125 430.582031 C 294.472656 430.546875 294.527344 430.511719 294.601562 430.53125 C 294.582031 430.699219 294.597656 430.894531 294.65625 431.117188 Z M 331.945312 373.425781 C 332.273438 373.09375 332.445312 372.722656 332.441406 372.351562 L 331.699219 371.605469 L 330.066406 371.605469 L 329.339844 372.210938 C 329.214844 372.824219 329.296875 373.3125 329.582031 373.664062 C 329.804688 373.929688 330.136719 374.078125 330.511719 374.078125 C 331.085938 374.078125 331.628906 373.742188 331.945312 373.425781 Z M 304.632812 363.847656 L 304.632812 362.542969 L 303.886719 361.800781 L 302.910156 361.800781 L 302.167969 362.457031 C 302.09375 363.105469 302.058594 363.78125 302.480469 364.253906 C 302.644531 364.441406 302.945312 364.664062 303.445312 364.664062 C 303.648438 364.664062 303.859375 364.625 304.101562 364.554688 Z M 339.28125 432.660156 C 339.507812 433.078125 339.8125 433.648438 340.460938 433.648438 C 340.851562 433.648438 341.195312 433.421875 341.488281 432.972656 L 341.265625 431.953125 C 341.214844 431.898438 341.109375 431.710938 341.046875 431.582031 C 340.785156 431.105469 340.429688 430.453125 339.722656 430.453125 C 339.304688 430.453125 338.933594 430.699219 338.613281 431.175781 L 339.25 432.328125 C 339.136719 432.328125 339.058594 432.277344 339.039062 432.265625 C 339.097656 432.316406 339.210938 432.53125 339.28125 432.660156 Z M 339.601562 412.847656 L 339.046875 413.046875 C 338.53125 413.53125 338.34375 414.402344 338.613281 415.078125 C 338.839844 415.652344 339.347656 415.996094 339.96875 415.996094 C 340.089844 415.996094 340.214844 415.984375 340.351562 415.953125 L 340.949219 415.269531 C 340.988281 414.566406 341.078125 412.941406 339.601562 412.847656 Z M 335.875 394.507812 C 335.785156 395.183594 335.871094 395.648438 336.144531 395.957031 L 336.855469 396.277344 C 337.421875 396.277344 337.917969 395.785156 337.964844 395.171875 C 338 394.660156 337.695312 394.007812 336.71875 393.871094 Z M 343.726562 435.425781 L 344.269531 436.226562 C 344.15625 436.203125 344.066406 436.074219 344.054688 436.0625 L 344.703125 436.90625 C 344.769531 436.914062 344.828125 436.914062 344.890625 436.917969 C 345.105469 436.101562 345.316406 435.28125 345.515625 434.460938 C 345.332031 434.414062 345.148438 434.386719 344.96875 434.386719 C 344.285156 434.386719 343.796875 434.796875 343.726562 435.425781 Z M 202.445312 483.996094 C 202.863281 483.996094 203.25 483.820312 203.507812 483.515625 C 203.710938 483.28125 203.933594 482.863281 203.832031 482.195312 L 203.183594 481.566406 C 201.945312 481.414062 201.1875 481.914062 201.054688 482.855469 L 201.246094 483.464844 C 201.558594 483.800781 201.996094 483.996094 202.445312 483.996094 Z M 251.167969 337.230469 L 250.585938 337.957031 L 250.585938 338.609375 L 251.226562 339.34375 C 251.332031 339.4375 251.515625 339.59375 251.808594 339.664062 L 252.710938 338.707031 C 252.671875 337.546875 252.089844 337.015625 251.167969 337.230469 Z M 223.421875 309.5625 C 223.5 309.820312 223.714844 310.597656 224.589844 310.601562 L 225.058594 310.496094 C 225.671875 310.152344 225.78125 309.59375 225.671875 309.1875 C 225.484375 308.472656 224.621094 307.9375 223.972656 307.9375 C 223.453125 307.9375 223.058594 308.269531 222.980469 308.761719 L 223.671875 309.613281 C 223.542969 309.601562 223.417969 309.507812 223.421875 309.5625 Z M 257.503906 334.960938 C 257.386719 334.660156 257.136719 334.429688 256.804688 334.308594 L 256.476562 334.472656 C 256.277344 334.101562 255.953125 333.605469 255.332031 333.605469 L 255.074219 333.636719 L 254.5625 334.089844 C 254.4375 334.410156 254.207031 334.671875 253.9375 334.972656 C 253.542969 335.414062 253.046875 335.964844 252.886719 336.835938 L 253.953125 337.640625 C 254.992188 337.109375 254.855469 337.109375 255.894531 337.640625 L 256.964844 337.074219 C 256.980469 337 257.09375 336.789062 257.164062 336.65625 C 257.417969 336.160156 257.734375 335.546875 257.503906 334.960938 Z M 183.871094 334.90625 C 184.023438 334.550781 183.941406 334.152344 183.664062 333.867188 C 183.203125 333.410156 182.488281 333.445312 181.621094 334.195312 C 181.464844 334.359375 180.980469 334.847656 181.21875 335.429688 L 182.074219 335.949219 C 182.546875 335.949219 183.585938 335.589844 183.871094 334.90625 Z M 201.054688 436.585938 C 201.0625 436.65625 201.0625 436.730469 201.066406 436.808594 C 201.070312 437.121094 201.097656 438.078125 202.011719 438.214844 L 202.96875 437.480469 C 203.132812 437.332031 203.378906 437.089844 203.488281 436.691406 L 202.773438 435.75 L 201.792969 435.75 Z M 178.964844 275.066406 C 178.9375 274.863281 179.007812 274.648438 179.085938 274.421875 C 179.195312 274.082031 179.347656 273.617188 179.097656 273.152344 C 178.832031 272.667969 178.265625 272.527344 178.082031 272.480469 L 177.394531 272.65625 C 176.863281 273.152344 176.652344 274.25 176.945312 275.003906 C 177.167969 275.5625 177.640625 275.902344 178.21875 275.90625 Z M 175.695312 346.855469 C 176.1875 346.765625 177.496094 346.542969 177.332031 345.113281 L 176.679688 344.464844 C 175.839844 344.347656 175.261719 344.523438 174.890625 344.941406 C 174.597656 345.265625 174.476562 345.707031 174.539062 346.253906 L 175.433594 346.902344 Z M 235.785156 342.117188 C 236.148438 341.789062 236.523438 341.472656 236.894531 341.15625 C 237.292969 340.824219 237.683594 340.492188 238.074219 340.148438 L 237.539062 338.851562 C 236.5625 338.902344 235.957031 339.039062 235.160156 339.664062 L 235.425781 340.007812 C 235.386719 340.023438 235.347656 340.035156 235.304688 340.054688 C 234.792969 340.257812 234.089844 340.542969 234.105469 341.242188 C 234.113281 341.695312 234.425781 342.035156 235.039062 342.257812 Z M 199.738281 366.199219 L 200.65625 366.863281 L 201.160156 366.738281 C 202.058594 366.542969 202.992188 366.335938 203.632812 365.671875 L 203.753906 364.8125 C 203.699219 364.695312 203.664062 364.441406 203.632812 364.21875 C 203.558594 363.679688 203.457031 362.941406 202.828125 362.558594 L 201.738281 362.953125 C 201.574219 363.441406 201.359375 364.070312 201.472656 364.664062 C 200.980469 364.671875 200.425781 364.742188 200.054688 365.160156 C 199.886719 365.34375 199.691406 365.675781 199.738281 366.199219 Z M 269.488281 339.707031 C 270.320312 339.707031 270.964844 338.875 271.019531 338.125 C 271.0625 337.488281 270.679688 336.984375 270.082031 336.898438 L 269.273438 337.386719 C 269.203125 337.582031 269.101562 337.746094 269.003906 337.914062 C 268.863281 338.15625 268.726562 338.402344 268.617188 338.6875 L 269.082031 339.644531 Z M 236.066406 285.019531 C 236.628906 285.019531 237.125 284.523438 237.175781 283.914062 C 237.207031 283.402344 236.90625 282.753906 235.925781 282.609375 L 235.082031 283.25 C 234.996094 283.921875 235.082031 284.382812 235.355469 284.691406 Z M 242.347656 380.484375 C 241.613281 380.484375 241.0625 380.988281 240.972656 381.75 L 241.191406 382.371094 C 241.519531 382.691406 241.957031 382.871094 242.386719 382.871094 C 243.113281 382.871094 243.667969 382.363281 243.757812 381.605469 L 243.539062 380.980469 C 243.210938 380.667969 242.78125 380.484375 242.347656 380.484375 Z M 263.589844 335.621094 C 263.808594 335.847656 264.039062 336.066406 264.296875 336.261719 L 265.476562 335.777344 C 265.457031 335.929688 265.320312 336.054688 265.375 336.066406 C 265.46875 336.066406 265.570312 336.074219 265.671875 336.078125 L 266.460938 335.367188 C 266.476562 334.992188 266.628906 334.753906 266.839844 334.429688 C 267.097656 334.027344 267.417969 333.527344 267.449219 332.75 L 267.40625 332.480469 C 267.148438 331.710938 266.328125 331.699219 265.890625 331.695312 C 265.863281 331.691406 265.835938 331.691406 265.804688 331.691406 L 265.804688 331.65625 C 265.703125 330.753906 265.097656 330.65625 264.84375 330.65625 L 264.582031 330.6875 L 264 331.425781 C 264.003906 331.75 263.941406 331.835938 263.179688 332.109375 C 262.507812 332.351562 261.488281 332.71875 261.390625 333.972656 L 262.089844 334.777344 C 262.765625 334.808594 263.109375 335.152344 263.589844 335.621094 Z M 231.894531 315.835938 L 232.640625 315.09375 L 232.640625 314.109375 L 231.894531 313.367188 L 230.917969 313.367188 L 230.175781 314.109375 L 230.175781 315.09375 L 230.917969 315.835938 Z M 241.957031 385.675781 C 241.863281 385.789062 241.710938 385.960938 241.640625 386.25 L 242.273438 387.164062 C 242.378906 387.25 242.554688 387.402344 242.839844 387.472656 L 243.757812 386.84375 C 243.851562 386.738281 244.007812 386.550781 244.070312 386.257812 L 243.445312 385.363281 C 243.339844 385.269531 243.160156 385.113281 242.871094 385.042969 Z M 230.832031 395.8125 L 231.164062 396.203125 C 231.160156 396.15625 231.164062 396.117188 231.164062 396.09375 L 231.894531 396.988281 L 232.550781 396.988281 L 233.292969 396.214844 C 233.285156 396.007812 233.351562 395.898438 233.5 395.664062 L 232.964844 394.519531 C 231.714844 394.363281 230.964844 394.871094 230.832031 395.8125 Z M 231.417969 369.480469 L 232.304688 368.851562 C 232.398438 368.742188 232.546875 368.5625 232.617188 368.273438 L 231.988281 367.363281 C 231.882812 367.273438 231.703125 367.125 231.429688 367.054688 L 230.507812 367.679688 C 230.414062 367.785156 230.253906 367.96875 230.191406 368.265625 L 230.816406 369.152344 C 230.917969 369.246094 231.113281 369.417969 231.417969 369.480469 Z M 231.808594 381.882812 L 231.8125 381.882812 C 232.367188 381.882812 232.875 381.375 232.917969 380.773438 C 232.957031 380.265625 232.652344 379.621094 231.675781 379.480469 L 230.832031 380.113281 C 230.738281 380.785156 230.824219 381.246094 231.097656 381.558594 Z M 127.429688 294.34375 L 126.125 294.515625 C 125.855469 294.667969 125.050781 295.125 125.496094 296.363281 L 126.6875 296.859375 C 126.867188 296.988281 127.171875 297.195312 127.652344 297.195312 L 127.953125 297.171875 L 128.578125 296.40625 C 128.539062 295.496094 128.050781 294.996094 127.695312 294.632812 C 127.605469 294.539062 127.511719 294.445312 127.429688 294.34375 Z M 128.992188 367.039062 C 128.796875 366.820312 128.523438 366.707031 128.121094 366.707031 C 128.117188 366.707031 128.109375 366.707031 128.105469 366.707031 L 127.644531 366.902344 C 127.253906 367.273438 127.082031 367.804688 127.160156 368.347656 C 127.246094 368.933594 127.621094 369.46875 128.144531 369.742188 L 129.191406 368.863281 C 129.183594 368.796875 129.207031 368.585938 129.226562 368.453125 C 129.28125 368.007812 129.351562 367.449219 128.992188 367.039062 Z M 99.9375 305.507812 C 99.910156 305.621094 99.644531 305.878906 99.488281 306.039062 C 99.09375 306.433594 98.597656 306.925781 98.613281 307.609375 C 98.621094 308.023438 98.8125 308.410156 99.1875 308.761719 L 100.332031 308.59375 C 100.570312 308.195312 100.867188 307.851562 101.21875 307.5625 C 101.597656 307.828125 102.085938 307.96875 102.507812 307.96875 C 103.347656 307.96875 103.957031 307.4375 104.027344 306.648438 L 103.117188 305.859375 C 102.621094 305.976562 102.46875 305.921875 102.070312 305.5625 C 101.796875 305.3125 101.414062 304.972656 100.800781 304.863281 Z M 88.902344 375.542969 L 88.914062 375.554688 L 88.933594 375.554688 C 88.917969 375.554688 88.917969 375.542969 88.902344 375.542969 Z M 88.515625 377.316406 C 88.492188 377.308594 88.617188 377.171875 88.648438 377 C 88.628906 376.996094 88.617188 376.996094 88.597656 376.988281 L 87.824219 377.671875 C 87.265625 377.609375 87.050781 377.285156 86.96875 377.101562 C 86.746094 376.578125 87.082031 376.125 87.328125 375.796875 C 87.394531 375.71875 87.5 375.578125 87.519531 375.523438 C 87.519531 375.523438 87.488281 375.59375 87.5 375.710938 L 88.394531 374.90625 C 88.945312 375.019531 89.128906 375.472656 89.210938 375.664062 C 89.203125 375.660156 89.085938 375.609375 88.976562 375.570312 C 88.984375 375.59375 88.984375 375.621094 88.984375 375.636719 L 89.625 376.390625 C 89.511719 377.160156 88.761719 377.273438 88.515625 377.316406 Z M 79.882812 371.511719 C 79.882812 371.246094 79.816406 371.003906 79.699219 370.804688 C 79.507812 370.484375 79.179688 370.292969 78.824219 370.292969 L 78.59375 370.320312 L 78.257812 370.722656 C 78.339844 370.675781 78.441406 370.648438 78.558594 370.648438 C 78.5625 370.648438 78.5625 370.648438 78.566406 370.648438 L 77.679688 371.375 L 77.679688 372.023438 L 78.019531 372.652344 C 78.246094 372.789062 78.480469 372.871094 78.714844 372.871094 C 79.378906 372.871094 79.882812 372.285156 79.882812 371.511719 Z M 77.230469 374.394531 C 77.078125 374.59375 76.921875 374.925781 77.039062 375.464844 L 77.746094 376.042969 L 77.808594 376.042969 C 78.589844 376.042969 79.171875 375.640625 79.449219 374.90625 L 78.53125 373.910156 C 78.132812 373.929688 77.582031 373.949219 77.230469 374.394531 Z M 93.714844 323.066406 C 93.644531 323.484375 93.820312 324.0625 94.546875 324.304688 L 95.519531 323.648438 C 95.515625 323.773438 95.34375 323.855469 95.484375 323.882812 C 96.25 323.664062 96.59375 323.207031 96.503906 322.519531 L 96.050781 321.929688 C 95.132812 321.550781 93.859375 322.191406 93.714844 323.066406 Z M 99.113281 315.367188 C 99.378906 315.21875 100.1875 314.757812 99.726562 313.523438 L 99.03125 313.039062 L 98.054688 313.039062 L 97.316406 313.867188 C 97.328125 313.972656 97.328125 314.09375 97.320312 314.207031 C 97.320312 314.660156 97.3125 315.605469 98.210938 315.816406 Z M 95.332031 401.558594 L 96.171875 400.699219 C 96.1875 400.757812 96.175781 400.894531 96.078125 401.03125 C 95.976562 401.167969 95.84375 401.21875 95.800781 401.222656 L 96.035156 401.222656 C 96.261719 401.222656 96.800781 401.222656 97.101562 400.757812 C 97.417969 400.269531 97.175781 399.722656 97.097656 399.542969 L 96.589844 399.121094 L 96.28125 399.085938 C 95.453125 399.085938 94.523438 399.839844 94.46875 400.554688 C 94.4375 400.972656 94.695312 401.464844 95.332031 401.558594 Z M 92.898438 388.847656 L 92.140625 387.976562 C 92.28125 387.976562 92.363281 388.027344 92.363281 388.027344 C 92.324219 388.003906 92.234375 387.914062 92.171875 387.847656 C 91.941406 387.609375 91.621094 387.285156 91.160156 387.285156 C 90.886719 387.285156 90.398438 387.394531 90.148438 388.160156 L 90.359375 388.40625 C 90.167969 388.65625 89.898438 389.082031 90.128906 389.5625 C 90.296875 389.910156 90.644531 390.097656 91.164062 390.105469 L 91.886719 389.410156 C 91.898438 389.414062 91.910156 389.421875 91.925781 389.421875 C 91.898438 389.597656 91.765625 389.742188 91.785156 389.746094 C 92.03125 389.710938 92.765625 389.597656 92.898438 388.847656 Z M 90.738281 336.3125 L 91.09375 336.769531 C 91.25 336.789062 91.394531 336.800781 91.535156 336.800781 C 92.476562 336.800781 93.109375 336.304688 93.226562 335.480469 L 92.582031 334.636719 C 92.0625 334.566406 91.644531 334.617188 91.296875 334.773438 L 90.945312 334.308594 C 89.703125 334.140625 88.9375 334.660156 88.8125 335.609375 L 89.457031 336.441406 C 89.972656 336.511719 90.398438 336.460938 90.738281 336.3125 Z M 94.078125 399.277344 L 94.882812 398.324219 C 95.140625 398.144531 95.746094 397.714844 95.503906 396.726562 L 94.78125 396.15625 L 93.804688 396.15625 L 93.097656 397.113281 C 93.105469 397.179688 93.078125 397.390625 93.0625 397.527344 C 93.003906 397.96875 92.9375 398.527344 93.292969 398.933594 C 93.488281 399.15625 93.765625 399.277344 94.078125 399.277344 Z M 165.875 273.625 C 165.96875 273.511719 166.125 273.332031 166.1875 273.027344 L 165.5625 272.144531 C 165.460938 272.054688 165.269531 271.886719 164.96875 271.824219 L 164.078125 272.449219 C 163.984375 272.5625 163.824219 272.742188 163.761719 273.042969 L 164.386719 273.9375 C 164.492188 274.03125 164.671875 274.183594 164.960938 274.25 Z M 164.234375 316.261719 L 163.503906 315.652344 L 162.847656 315.652344 L 162.113281 316.296875 C 162.023438 316.40625 161.863281 316.589844 161.792969 316.875 L 161.8125 317.289062 C 161.988281 317.800781 162.515625 318.117188 163.191406 318.117188 C 163.921875 318.117188 164.46875 317.78125 164.589844 317.265625 C 164.628906 317.082031 164.660156 316.683594 164.246094 316.324219 C 164.242188 316.304688 164.242188 316.28125 164.234375 316.261719 Z M 170.109375 380.675781 L 168.945312 380.21875 C 169.035156 380.21875 169.136719 380.269531 169.128906 380.242188 C 169.003906 379.980469 168.539062 379.226562 167.578125 379.492188 L 167.035156 380.0625 C 166.78125 381.257812 167.476562 381.746094 167.851562 382.011719 C 167.941406 382.070312 168.066406 382.15625 168.085938 382.199219 L 169.480469 381.882812 C 169.472656 382.015625 169.375 382.140625 169.390625 382.140625 C 170.039062 381.839844 170.277344 381.339844 170.109375 380.675781 Z M 161.484375 380.851562 L 162.601562 380.257812 C 162.597656 380.386719 162.425781 380.457031 162.566406 380.496094 C 163.335938 380.273438 163.675781 379.816406 163.585938 379.132812 L 163.011719 378.503906 C 162.984375 378.492188 162.90625 378.414062 162.859375 378.363281 C 162.585938 378.074219 161.996094 377.59375 161.019531 377.851562 L 160.46875 378.527344 C 160.390625 379.910156 160.976562 380.546875 161.484375 380.851562 Z M 161.605469 306.539062 L 161.210938 306.875 C 160.839844 307.550781 161.023438 308.0625 161.171875 308.308594 C 161.433594 308.753906 161.960938 309.03125 162.550781 309.03125 C 163.257812 309.03125 163.800781 308.625 163.90625 308.019531 L 163.460938 307.164062 C 163.292969 306.871094 162.746094 306.117188 161.605469 306.539062 Z M 174.019531 407.378906 L 173.507812 407.273438 C 172.277344 407.273438 172.074219 408.421875 171.988281 408.910156 L 171.9375 409.171875 L 172.949219 410.117188 C 173.078125 410.175781 173.257812 410.269531 173.488281 410.269531 C 173.640625 410.269531 174.160156 410.210938 174.363281 409.550781 L 174.226562 409.292969 C 174.441406 409.089844 174.738281 408.761719 174.683594 408.28125 C 174.644531 407.910156 174.421875 407.609375 174.019531 407.378906 Z M 166.144531 269.089844 C 166.304688 269.089844 166.476562 269.0625 166.660156 269.003906 L 166.894531 268.144531 C 166.328125 268.277344 165.769531 268.414062 165.207031 268.550781 C 165.246094 268.617188 165.273438 268.6875 165.328125 268.746094 C 165.53125 268.96875 165.820312 269.089844 166.144531 269.089844 Z M 167.375 290.785156 C 167.71875 290.785156 168.054688 290.714844 168.375 290.578125 L 168.824219 289.921875 C 168.867188 288.597656 168.582031 287.660156 167.941406 287.0625 L 166.6875 287.5625 C 166.699219 287.398438 166.855469 287.246094 166.863281 287.230469 C 166.726562 287.230469 166.566406 287.210938 166.40625 287.195312 C 165.957031 287.144531 165.539062 287.125 165.230469 287.222656 L 164.71875 287.945312 C 164.765625 289.566406 165.910156 290.785156 167.375 290.785156 Z M 141.824219 281.28125 L 142.46875 282.125 C 142.625 282.144531 142.769531 282.152344 142.902344 282.152344 C 143.855469 282.152344 144.492188 281.660156 144.605469 280.832031 L 143.960938 279.992188 C 142.726562 279.828125 141.953125 280.332031 141.824219 281.28125 Z M 145.722656 358.980469 C 145.609375 358.796875 145.375 358.550781 144.902344 358.523438 L 144.175781 358.921875 C 143.828125 359.375 143.304688 360.054688 143.570312 360.785156 C 143.679688 361.078125 143.960938 361.464844 144.683594 361.628906 L 145.507812 360.554688 C 145.460938 360.472656 145.5625 360.273438 145.640625 360.109375 C 145.773438 359.832031 145.972656 359.410156 145.722656 358.980469 Z M 145.761719 350.949219 C 145.132812 350.148438 143.867188 349.863281 142.175781 350.015625 L 141.5 350.640625 C 141.394531 351.347656 141.503906 351.890625 141.832031 352.269531 C 142.023438 352.488281 142.386719 352.761719 143.007812 352.761719 C 143.566406 352.761719 144.183594 352.542969 144.707031 352.304688 C 145.140625 352.476562 145.792969 352.28125 145.90625 351.523438 Z M 142.152344 305.820312 L 142.789062 306.660156 C 142.953125 306.679688 143.105469 306.695312 143.246094 306.695312 C 144.183594 306.695312 144.816406 306.199219 144.933594 305.378906 L 144.285156 304.535156 C 143.054688 304.371094 142.28125 304.878906 142.152344 305.820312 Z M 140.835938 298.957031 C 140.746094 299.632812 140.835938 300.089844 141.109375 300.402344 L 141.824219 300.726562 C 142.378906 300.726562 142.886719 300.222656 142.929688 299.621094 C 142.964844 299.109375 142.660156 298.457031 141.679688 298.320312 Z M 334.292969 423.199219 C 334.207031 423.171875 334.121094 423.136719 334.046875 423.089844 L 332.929688 423.648438 C 332.84375 424.402344 332.972656 424.949219 333.308594 425.324219 C 333.5 425.539062 333.851562 425.796875 334.449219 425.796875 C 334.535156 425.796875 334.632812 425.785156 334.730469 425.773438 L 335.359375 425.238281 C 335.761719 423.777344 334.695312 423.359375 334.292969 423.199219 Z M 336.152344 361.628906 L 336.945312 361.234375 C 336.996094 361.128906 337.082031 361.03125 337.15625 360.9375 C 337.375 360.652344 337.714844 360.222656 337.53125 359.683594 C 337.34375 359.109375 336.710938 358.9375 336.472656 358.878906 L 335.558594 359.402344 C 335.539062 359.488281 335.507812 359.550781 335.484375 359.609375 C 335.363281 359.871094 335.277344 360.152344 335.375 360.480469 C 335.351562 360.539062 335.335938 360.605469 335.332031 360.675781 C 335.300781 361.0625 335.539062 361.527344 336.152344 361.628906 Z M 321.160156 359.761719 L 321.84375 360.691406 C 321.996094 360.792969 322.273438 361.003906 322.722656 361.003906 L 322.992188 360.980469 L 323.605469 360.144531 C 323.59375 360.074219 323.59375 359.996094 323.589844 359.921875 C 323.578125 359.609375 323.554688 358.667969 322.652344 358.527344 L 321.796875 359.242188 C 321.800781 359.097656 321.910156 358.960938 321.921875 358.949219 C 321.726562 359.03125 321.277344 359.214844 321.160156 359.761719 Z M 319.511719 436.550781 L 320.007812 437.195312 C 320.195312 437.265625 320.359375 437.363281 320.523438 437.460938 C 320.769531 437.609375 321.015625 437.746094 321.304688 437.851562 L 322.253906 437.40625 C 322.667969 436.265625 322.679688 435.390625 322.28125 434.796875 C 322.078125 434.503906 321.683594 434.140625 320.929688 434.113281 L 320.179688 434.691406 C 320.152344 434.796875 320.089844 434.890625 319.980469 435.050781 C 319.773438 435.355469 319.457031 435.800781 319.511719 436.550781 Z M 321.207031 391.433594 C 321.296875 391.917969 321.5 393.066406 322.726562 393.066406 L 322.949219 393.054688 L 323.609375 392.3125 L 323.609375 391.007812 L 322.867188 390.265625 L 321.882812 390.265625 L 321.160156 391.167969 Z M 323.488281 384.789062 C 323.378906 384.566406 322.953125 383.824219 322.03125 384.074219 L 321.535156 384.496094 C 321.351562 384.921875 321.398438 385.402344 321.675781 385.820312 C 321.953125 386.25 322.421875 386.53125 322.867188 386.53125 C 323.316406 386.53125 323.820312 386.230469 323.925781 385.554688 L 323.226562 384.695312 C 323.359375 384.707031 323.46875 384.789062 323.484375 384.789062 Z M 305.46875 341.121094 C 305.46875 340.699219 305.265625 340.296875 304.90625 339.992188 C 304.5625 339.703125 304.109375 339.539062 303.632812 339.539062 L 303.632812 340.304688 C 303.605469 340.304688 303.585938 340.289062 303.558594 340.289062 C 303.558594 340.726562 303.558594 341.167969 303.558594 341.59375 C 303.75 341.625 303.816406 341.5625 303.957031 341.554688 L 303.957031 342.375 C 304.996094 342.375 305.46875 341.722656 305.46875 341.121094 Z M 263.734375 279.992188 L 262.890625 280.691406 C 262.839844 281.875 263.851562 282.160156 264.28125 282.28125 C 264.40625 282.3125 264.585938 282.367188 264.640625 282.40625 C 264.632812 282.398438 264.613281 282.382812 264.601562 282.351562 L 266 282.191406 C 266.253906 280.992188 265.554688 280.496094 265.179688 280.234375 C 265.089844 280.167969 264.964844 280.085938 264.945312 280.042969 L 263.578125 280.1875 C 263.605469 280.09375 263.726562 280 263.734375 279.992188 Z M 302.859375 372.636719 C 302.878906 371.917969 302.410156 371.378906 301.691406 371.285156 L 300.878906 371.828125 C 300.839844 371.96875 300.757812 372.089844 300.65625 372.242188 C 300.40625 372.636719 300.0625 373.164062 300.203125 374.105469 L 300.992188 374.730469 C 302.015625 374.660156 302.839844 373.542969 302.859375 372.636719 Z M 319.347656 457.195312 C 319.433594 456.453125 319.308594 455.902344 318.972656 455.523438 C 318.777344 455.300781 318.417969 455.042969 317.808594 455.042969 L 317.546875 455.058594 L 316.886719 455.742188 C 316.800781 456.953125 317.640625 457.414062 318.089844 457.667969 L 318.609375 457.109375 L 318.234375 457.746094 Z M 298.296875 419.316406 C 298.429688 419.316406 298.664062 419.300781 298.90625 419.222656 L 298.574219 419.617188 C 298.878906 421.21875 299.878906 421.347656 300.179688 421.347656 C 300.878906 421.347656 301.460938 420.804688 301.464844 420.140625 C 301.46875 419.832031 301.332031 418.863281 299.566406 418.746094 C 299.703125 418.539062 299.753906 418.289062 299.707031 418.039062 L 299.144531 417.445312 C 299.09375 417.433594 299.023438 417.398438 298.9375 417.351562 C 298.667969 417.203125 298.171875 416.96875 297.511719 417.109375 L 297.019531 417.46875 C 296.785156 417.878906 296.769531 418.316406 296.976562 418.671875 C 297.207031 419.074219 297.703125 419.316406 298.296875 419.316406 Z M 319.347656 438.699219 L 318.609375 438.039062 L 317.628906 438.039062 L 316.886719 438.78125 L 316.886719 440.09375 L 317.546875 440.832031 L 317.8125 440.847656 C 318.417969 440.847656 318.777344 440.585938 318.972656 440.371094 C 319.3125 439.988281 319.433594 439.441406 319.347656 438.699219 Z M 317.214844 313.125 L 317.933594 313.867188 L 317.960938 313.867188 C 317.714844 313.558594 317.464844 313.25 317.214844 312.941406 Z M 316.761719 344.136719 C 315.730469 343.980469 315.210938 344.335938 314.957031 344.628906 C 314.617188 345.019531 314.503906 345.582031 314.605469 346.28125 L 315.398438 346.914062 C 315.753906 346.894531 316.847656 346.804688 317.316406 345.851562 L 317.148438 345.5 C 317.257812 345.371094 317.347656 345.207031 317.378906 344.988281 Z M 317.027344 434.761719 C 316.808594 434.761719 316.269531 434.84375 315.964844 435.546875 L 316.636719 436.585938 C 316.445312 436.574219 316.269531 436.390625 316.269531 436.445312 C 316.308594 436.691406 316.421875 437.433594 317.1875 437.554688 L 317.632812 437.492188 C 318.203125 437.207031 318.472656 436.609375 318.320312 435.960938 C 318.1875 435.367188 317.699219 434.761719 317.027344 434.761719 Z M 322.53125 450.613281 C 322.445312 450.4375 322.21875 450.140625 321.667969 450.140625 L 321.308594 450.1875 C 320.609375 450.429688 320.410156 451.253906 320.519531 451.917969 C 320.652344 452.699219 321.132812 452.980469 321.539062 452.980469 C 321.828125 452.980469 322.242188 452.839844 322.554688 452.191406 L 322.269531 451.761719 C 322.273438 451.761719 322.28125 451.753906 322.292969 451.738281 C 322.464844 451.515625 322.773438 451.105469 322.53125 450.613281 Z M 313.867188 409.589844 L 313.292969 410.414062 C 313.300781 410.492188 313.300781 410.566406 313.304688 410.640625 C 313.3125 410.953125 313.347656 411.90625 314.257812 412.03125 L 314.664062 411.6875 C 314.621094 411.699219 314.578125 411.738281 314.519531 411.699219 L 315.421875 410.90625 C 315.308594 409.53125 314.546875 409.449219 313.867188 409.589844 Z M 284.972656 312.320312 C 285.089844 311.828125 285.003906 311.359375 284.722656 311 C 284.140625 310.265625 282.730469 310.257812 282.148438 311 C 281.867188 311.359375 281.777344 311.828125 281.894531 312.316406 L 282.785156 312.871094 L 283.191406 312.769531 C 283.457031 312.703125 283.460938 312.714844 283.675781 312.769531 L 284.085938 312.871094 Z M 250.582031 494.113281 L 251.148438 493.738281 C 251.296875 493.808594 251.484375 493.867188 251.71875 493.867188 L 251.972656 493.847656 L 252.601562 493.109375 L 252.601562 491.796875 L 252.015625 491.074219 L 251.703125 491.039062 C 250.796875 491.039062 250.0625 491.886719 249.902344 492.667969 C 249.773438 493.3125 250.035156 493.882812 250.582031 494.113281 Z M 261.597656 287.101562 C 261.628906 287.265625 261.648438 287.445312 261.667969 287.625 C 261.730469 288.28125 261.875 289.652344 263.296875 289.652344 L 263.316406 289.652344 L 264.039062 288.78125 C 263.863281 287.753906 263.449219 286.945312 262.8125 286.390625 Z M 260.109375 283.957031 L 259.625 284.664062 C 259.625 284.886719 259.5625 285.003906 259.414062 285.230469 L 260.300781 286.34375 C 260.414062 286.34375 260.546875 286.363281 260.671875 286.375 C 260.867188 286.402344 261.058594 286.425781 261.226562 286.425781 C 261.625 286.425781 261.9375 286.304688 262.152344 286.074219 C 262.285156 285.925781 262.449219 285.660156 262.410156 285.25 L 261.957031 284.585938 C 261.792969 284.292969 261.269531 283.550781 260.109375 283.957031 Z M 172.988281 413.257812 C 172.988281 413.046875 172.988281 412.824219 172.988281 412.601562 C 172.386719 411.515625 171.394531 413.589844 172.988281 413.257812 Z M 110.488281 449.914062 C 110.285156 449.859375 110.195312 449.929688 110.046875 449.941406 L 110.050781 449.113281 C 109.066406 449.113281 108.542969 449.800781 108.542969 450.484375 C 108.542969 450.859375 108.699219 451.238281 108.972656 451.511719 C 109.28125 451.820312 109.710938 451.984375 110.191406 451.984375 L 110.101562 451.15625 C 110.234375 451.175781 110.320312 451.25 110.488281 451.214844 C 110.488281 450.777344 110.488281 450.34375 110.488281 449.914062 Z M 95.765625 315.738281 C 95.765625 315.523438 95.765625 315.304688 95.765625 315.09375 C 95.164062 314 94.164062 316.066406 95.765625 315.738281 Z M 234.503906 369.734375 C 233.910156 368.648438 232.914062 370.722656 234.503906 370.390625 C 234.503906 370.175781 234.503906 369.957031 234.503906 369.734375 Z M 172.941406 415.554688 C 172.941406 415.171875 173.089844 414.796875 173.351562 414.542969 C 173.617188 414.277344 173.988281 414.125 174.390625 414.125 L 174.390625 414.9375 C 174.476562 414.9375 174.519531 414.875 174.625 414.898438 C 175.171875 415.546875 174.601562 415.308594 174.625 416.203125 C 174.519531 416.226562 174.480469 416.167969 174.390625 416.15625 L 174.390625 416.96875 C 173.570312 416.96875 172.945312 416.363281 172.941406 415.554688 " fill-opacity="1" fill-rule="nonzero"/></svg>